<svg width="92" height="73" viewBox="0 0 92 73" fill="none" xmlns="http://www.w3.org/2000/svg">
<g filter="url(#filter0_di_891_7748)">
<path d="M86.9978 45.807L87.3086 44.8124C88.0764 42.3554 87.9221 39.7028 86.8747 37.3514L86.6139 36.7659C85.8893 35.1393 84.6762 33.7787 83.1431 32.8731C82.1545 32.2891 81.0588 31.9097 79.9208 31.7573L79.4883 31.6993C78.5011 31.5671 77.5002 31.5759 76.5155 31.7254L75.2314 31.9204C74.9358 31.9653 74.6497 32.0588 74.3846 32.1971L71.8615 33.5131C71.205 33.8556 70.4194 33.3793 70.4194 32.6388V19.9194C70.4194 18.8593 69.56 18 68.5 18H51.5C50.7899 18 50.3112 17.274 50.5909 16.6213L51.5 14.5L52.2976 12.6391C52.761 11.5576 53 10.3933 53 9.21677C53 8.40953 52.8875 7.60623 52.6657 6.83005L52.5572 6.45015C52.1918 5.17117 51.5064 4.00642 50.5659 3.06586C49.8618 2.36175 49.0298 1.79847 48.1145 1.40623L47.425 1.11073C46.4791 0.705341 45.484 0.42628 44.4652 0.280742L44.1386 0.234089C43.0517 0.0788178 41.9483 0.0788177 40.8614 0.234089C39.6285 0.410211 38.4321 0.783938 37.3182 1.34089L37 1.5L35.7098 2.36012C34.5894 3.10709 33.6832 4.13354 33.081 5.338C32.3771 6.74579 32.1193 8.33475 32.3418 9.89289L32.3513 9.9589C32.45 10.65 32.6393 11.325 32.9143 11.9666L34 14.5L34.9091 16.6213C35.1888 17.274 34.7101 18 34 18H6C4.89543 18 4 18.8954 4 20V33.5C4 34.165 4.72132 34.5794 5.29582 34.2444L7.43011 33L8.05498 32.6994C9.6866 31.9145 11.5007 31.5873 13.3037 31.7527L13.7662 31.7951C15.2291 31.9293 16.63 32.45 17.8254 33.3038C18.9251 34.0893 19.816 35.1319 20.4203 36.3407L20.5403 36.5805C20.8458 37.1917 21.0836 37.8344 21.2493 38.4973L21.3174 38.7696C21.7663 40.5652 21.791 42.4406 21.3895 44.2474L21.2411 44.915C21.081 45.6356 20.8331 46.3339 20.5029 46.9942L20.4482 47.1036C19.8255 48.3489 18.9077 49.4231 17.7747 50.2324C16.6103 51.0641 15.2554 51.5898 13.8348 51.761L13.5359 51.7971C11.5898 52.0317 9.61831 51.6721 7.88037 50.7656L7.43011 50.5307L5.69642 49.5442C4.93974 49.1136 4 49.6601 4 50.5307V65C4 66.1046 4.89543 67 6 67H34C34.9189 67 35.5165 66.033 35.1056 65.2111L33.5 62L33.2114 61.4227C32.4263 59.8525 32.1869 58.0654 32.5312 56.3439L32.5486 56.2571C32.8429 54.7854 33.5663 53.4337 34.6276 52.3724C35.2054 51.7946 35.8726 51.3137 36.6035 50.9483L37 50.75C37.9935 50.2533 39.0606 49.9199 40.1602 49.7628L41.0955 49.6292C41.6977 49.5432 42.3053 49.5 42.9137 49.5C44.2955 49.5 45.6683 49.7228 46.9793 50.1598L47.3539 50.2846C47.7841 50.428 48.2036 50.6018 48.6091 50.8046L49.0117 51.0058C49.6663 51.3331 50.2638 51.7638 50.7813 52.2813C51.8928 53.3928 52.5854 54.8545 52.7419 56.4185L52.8127 57.1266C52.9362 58.3616 52.7971 59.6087 52.4046 60.7861L52.0744 61.7769C52.0249 61.9254 51.9649 62.0703 51.8948 62.2104L50.3944 65.2111C49.9835 66.033 50.5811 67 51.5 67H68.5C69.56 67 70.4194 66.1407 70.4194 65.0806V50.5307C70.4194 49.8137 71.2006 49.3699 71.8165 49.7371L74.3494 51.247C74.6371 51.4185 74.9551 51.5328 75.2861 51.5835L76.6325 51.7902C77.5395 51.9293 78.4617 51.9375 79.371 51.8144L79.9809 51.7319C81.0799 51.5831 82.1395 51.2221 83.1007 50.6688C84.9648 49.5959 86.3563 47.8599 86.9978 45.807Z" fill="#DDF1E9"/>
</g>
<defs>
<filter id="filter0_di_891_7748" x="0" y="-1.88281" width="91.7903" height="74.8828" filterUnits="userSpaceOnUse" color-interpolation-filters="sRGB">
<feFlood flood-opacity="0" result="BackgroundImageFix"/>
<feColorMatrix in="SourceAlpha" type="matrix" values="0 0 0 0 0 0 0 0 0 0 0 0 0 0 0 0 0 0 127 0" result="hardAlpha"/>
<feOffset dy="2"/>
<feGaussianBlur stdDeviation="2"/>
<feComposite in2="hardAlpha" operator="out"/>
<feColorMatrix type="matrix" values="0 0 0 0 0 0 0 0 0 0 0 0 0 0 0 0 0 0 0.25 0"/>
<feBlend mode="normal" in2="BackgroundImageFix" result="effect1_dropShadow_891_7748"/>
<feBlend mode="normal" in="SourceGraphic" in2="effect1_dropShadow_891_7748" result="shape"/>
<feColorMatrix in="SourceAlpha" type="matrix" values="0 0 0 0 0 0 0 0 0 0 0 0 0 0 0 0 0 0 127 0" result="hardAlpha"/>
<feOffset dx="4" dy="6"/>
<feGaussianBlur stdDeviation="4"/>
<feComposite in2="hardAlpha" operator="arithmetic" k2="-1" k3="1"/>
<feColorMatrix type="matrix" values="0 0 0 0 1 0 0 0 0 1 0 0 0 0 1 0 0 0 0.59 0"/>
<feBlend mode="normal" in2="shape" result="effect2_innerShadow_891_7748"/>
</filter>
</defs>
</svg>
