<svg width="42" height="42" viewBox="0 0 42 42" fill="none" xmlns="http://www.w3.org/2000/svg">
<path fill-rule="evenodd" clip-rule="evenodd" d="M21 0C20.1504 0 19.3706 0.492576 18.9734 1.28C18.9627 1.30119 18.9525 1.32262 18.9427 1.34429L11.895 16.9434C11.3488 17.9819 9.96116 18.0773 9.28866 17.1326L4.52589 8.29597C4.50274 8.25298 4.47773 8.21112 4.45094 8.17054C3.94224 7.39947 3.0782 7.07714 2.28347 7.25183C1.46291 7.43219 0.764332 8.13929 0.661746 9.14468C0.306158 12.6296 0 16.2606 0 19.9806C0 23.7006 0.306158 27.3315 0.661746 30.8164C1.21927 36.2805 5.39877 40.6593 10.6004 41.267C13.9413 41.6575 17.4274 42 21 42C24.5726 42 28.0587 41.6575 31.3995 41.267C36.6013 40.6593 40.7808 36.2805 41.3383 30.8164C41.6939 27.3315 42 23.7006 42 19.9806C42 16.2606 41.6939 12.6296 41.3383 9.14468C41.2356 8.13929 40.5372 7.43219 39.7164 7.25183C38.9219 7.07714 38.0576 7.39947 37.5489 8.17054C37.5222 8.21112 37.4973 8.25298 37.474 8.29597L32.7115 17.1326C32.0388 18.0773 30.6513 17.9819 30.105 16.9434L23.0573 1.34429C23.0475 1.32263 23.0373 1.30119 23.0266 1.28001C22.6294 0.492573 21.8495 0 21 0Z" fill="#FFDD2D"/>
</svg>
