<svg width="21" height="20" viewBox="0 0 21 20" fill="none" xmlns="http://www.w3.org/2000/svg">
<path d="M8.28918 15.8337C8.0699 15.8336 7.85555 15.7652 7.67324 15.6372C7.49093 15.5092 7.34884 15.3272 7.26493 15.1143C7.18102 14.9014 7.15906 14.6672 7.20183 14.4412C7.2446 14.2152 7.35017 14.0076 7.5052 13.8446L11.1567 10.0075L7.5052 6.17037C7.39929 6.06288 7.31481 5.9343 7.2567 5.79214C7.19858 5.64997 7.16799 5.49707 7.16671 5.34235C7.16543 5.18763 7.19349 5.0342 7.24925 4.89099C7.305 4.74779 7.38734 4.61769 7.49146 4.50828C7.59557 4.39887 7.71938 4.31235 7.85566 4.25376C7.99193 4.19517 8.13795 4.16569 8.28519 4.16704C8.43242 4.16838 8.57793 4.20053 8.71322 4.26159C8.84851 4.32266 8.97086 4.41143 9.07316 4.52272L13.5087 9.18366C13.7166 9.40218 13.8333 9.69851 13.8333 10.0075C13.8333 10.3165 13.7166 10.6128 13.5087 10.8313L9.07316 15.4922C8.86525 15.7108 8.58325 15.8336 8.28918 15.8337Z" fill="#9CA3AF"/>
</svg>
