<svg width="427" height="39" viewBox="0 0 427 39" fill="none" xmlns="http://www.w3.org/2000/svg">
<g filter="url(#filter0_di_554_6027)">
<path d="M153 0H135C128.373 0 123 5.37258 123 12V19C123 25.6274 128.373 31 135 31H153C159.627 31 165 25.6274 165 19V12C165 5.37258 159.627 0 153 0Z" fill="#DDF1E9"/>
</g>
<path d="M171.434 20.081C171.201 20.081 171.001 19.9986 170.833 19.8338C170.666 19.6662 170.582 19.4645 170.582 19.2287C170.582 18.9957 170.666 18.7969 170.833 18.6321C171.001 18.4645 171.201 18.3807 171.434 18.3807C171.667 18.3807 171.868 18.4645 172.035 18.6321C172.203 18.7969 172.287 18.9957 172.287 19.2287C172.287 19.3849 172.247 19.5284 172.167 19.6591C172.091 19.7869 171.988 19.8892 171.86 19.9659C171.733 20.0426 171.591 20.081 171.434 20.081ZM171.434 15.3168C171.201 15.3168 171.001 15.233 170.833 15.0653C170.666 14.8977 170.582 14.6974 170.582 14.4645C170.582 14.2315 170.666 14.0327 170.833 13.8679C171.001 13.7003 171.201 13.6165 171.434 13.6165C171.667 13.6165 171.868 13.7003 172.035 13.8679C172.203 14.0327 172.287 14.2315 172.287 14.4645C172.287 14.6207 172.247 14.7642 172.167 14.8949C172.091 15.0227 171.988 15.125 171.86 15.2017C171.733 15.2784 171.591 15.3168 171.434 15.3168ZM178.175 13.4545L179.619 16.0028L181.077 13.4545H182.47L180.429 16.7273L182.487 20H181.094L179.619 17.554L178.149 20H176.751L178.788 16.7273L176.777 13.4545H178.175ZM184.618 20.081C184.385 20.081 184.185 19.9986 184.017 19.8338C183.849 19.6662 183.766 19.4645 183.766 19.2287C183.766 18.9957 183.849 18.7969 184.017 18.6321C184.185 18.4645 184.385 18.3807 184.618 18.3807C184.851 18.3807 185.051 18.4645 185.219 18.6321C185.386 18.7969 185.47 18.9957 185.47 19.2287C185.47 19.3849 185.43 19.5284 185.351 19.6591C185.274 19.7869 185.172 19.8892 185.044 19.9659C184.916 20.0426 184.774 20.081 184.618 20.081ZM189.882 20.1449C189.208 20.142 188.633 19.9645 188.156 19.6122C187.679 19.2599 187.314 18.7472 187.061 18.0739C186.808 17.4006 186.681 16.5895 186.681 15.6406C186.681 14.6946 186.808 13.8864 187.061 13.2159C187.316 12.5455 187.683 12.0341 188.16 11.6818C188.64 11.3295 189.214 11.1534 189.882 11.1534C190.549 11.1534 191.122 11.331 191.599 11.6861C192.076 12.0384 192.441 12.5497 192.694 13.2202C192.95 13.8878 193.078 14.6946 193.078 15.6406C193.078 16.5923 192.951 17.4048 192.699 18.0781C192.446 18.7486 192.081 19.2614 191.603 19.6165C191.126 19.9688 190.552 20.1449 189.882 20.1449ZM189.882 19.0071C190.473 19.0071 190.934 18.7188 191.267 18.142C191.602 17.5653 191.77 16.7315 191.77 15.6406C191.77 14.9162 191.693 14.304 191.539 13.804C191.389 13.3011 191.172 12.9205 190.887 12.6619C190.606 12.4006 190.271 12.2699 189.882 12.2699C189.294 12.2699 188.832 12.5597 188.497 13.1392C188.162 13.7187 187.993 14.5526 187.99 15.6406C187.99 16.3679 188.065 16.983 188.216 17.4858C188.369 17.9858 188.586 18.3651 188.868 18.6236C189.149 18.8793 189.487 19.0071 189.882 19.0071ZM195.13 20.081C194.897 20.081 194.696 19.9986 194.529 19.8338C194.361 19.6662 194.277 19.4645 194.277 19.2287C194.277 18.9957 194.361 18.7969 194.529 18.6321C194.696 18.4645 194.897 18.3807 195.13 18.3807C195.363 18.3807 195.563 18.4645 195.73 18.6321C195.898 18.7969 195.982 18.9957 195.982 19.2287C195.982 19.3849 195.942 19.5284 195.863 19.6591C195.786 19.7869 195.684 19.8892 195.556 19.9659C195.428 20.0426 195.286 20.081 195.13 20.081ZM200.393 20.1449C199.72 20.142 199.145 19.9645 198.668 19.6122C198.19 19.2599 197.825 18.7472 197.572 18.0739C197.32 17.4006 197.193 16.5895 197.193 15.6406C197.193 14.6946 197.32 13.8864 197.572 13.2159C197.828 12.5455 198.195 12.0341 198.672 11.6818C199.152 11.3295 199.726 11.1534 200.393 11.1534C201.061 11.1534 201.634 11.331 202.111 11.6861C202.588 12.0384 202.953 12.5497 203.206 13.2202C203.462 13.8878 203.589 14.6946 203.589 15.6406C203.589 16.5923 203.463 17.4048 203.21 18.0781C202.957 18.7486 202.592 19.2614 202.115 19.6165C201.638 19.9688 201.064 20.1449 200.393 20.1449ZM200.393 19.0071C200.984 19.0071 201.446 18.7188 201.778 18.142C202.114 17.5653 202.281 16.7315 202.281 15.6406C202.281 14.9162 202.205 14.304 202.051 13.804C201.901 13.3011 201.683 12.9205 201.399 12.6619C201.118 12.4006 200.783 12.2699 200.393 12.2699C199.805 12.2699 199.344 12.5597 199.009 13.1392C198.673 13.7187 198.504 14.5526 198.501 15.6406C198.501 16.3679 198.577 16.983 198.727 17.4858C198.881 17.9858 199.098 18.3651 199.379 18.6236C199.661 18.8793 199.999 19.0071 200.393 19.0071Z" fill="black"/>
<path d="M11.0062 20.1321C10.3727 20.1321 9.82724 19.9886 9.36985 19.7017C8.91531 19.4119 8.56587 19.0128 8.32156 18.5043C8.07724 17.9957 7.95508 17.4134 7.95508 16.7571C7.95508 16.0923 8.08008 15.5057 8.33008 14.9972C8.58008 14.4858 8.93235 14.0866 9.3869 13.7997C9.84144 13.5128 10.377 13.3693 10.9934 13.3693C11.4906 13.3693 11.9338 13.4616 12.323 13.6463C12.7122 13.8281 13.0261 14.0838 13.2647 14.4134C13.5062 14.7429 13.6497 15.1278 13.6951 15.5682H12.4551C12.3869 15.2614 12.2306 14.9972 11.9863 14.7756C11.7449 14.554 11.421 14.4432 11.0147 14.4432C10.6596 14.4432 10.3485 14.5369 10.0815 14.7244C9.81729 14.9091 9.61133 15.1733 9.4636 15.517C9.31587 15.858 9.24201 16.2614 9.24201 16.7273C9.24201 17.2045 9.31445 17.6165 9.45934 17.9631C9.60423 18.3097 9.80877 18.5781 10.073 18.7685C10.34 18.9588 10.6539 19.054 11.0147 19.054C11.2562 19.054 11.475 19.0099 11.671 18.9219C11.8699 18.831 12.036 18.7017 12.1696 18.5341C12.3059 18.3665 12.4011 18.1648 12.4551 17.929H13.6951C13.6497 18.3523 13.5119 18.7301 13.2818 19.0625C13.0517 19.3949 12.7434 19.6562 12.3571 19.8466C11.9735 20.0369 11.5233 20.1321 11.0062 20.1321ZM16.3319 16.1136V20H15.0577V11.2727H16.3148V14.5199H16.3958C16.5492 14.1676 16.7836 13.8878 17.0989 13.6804C17.4142 13.473 17.8262 13.3693 18.3347 13.3693C18.7836 13.3693 19.1756 13.4616 19.5108 13.6463C19.8489 13.831 20.1103 14.1065 20.2949 14.473C20.4824 14.8366 20.5762 15.2912 20.5762 15.8366V20H19.302V15.9901C19.302 15.5099 19.1784 15.1378 18.9313 14.8736C18.6841 14.6065 18.3404 14.473 17.9 14.473C17.5989 14.473 17.329 14.5369 17.0904 14.6648C16.8546 14.7926 16.6685 14.9801 16.5321 15.2273C16.3986 15.4716 16.3319 15.767 16.3319 16.1136ZM24.1813 20.1449C23.7665 20.1449 23.3915 20.0682 23.0563 19.9148C22.7211 19.7585 22.4554 19.5327 22.2594 19.2372C22.0662 18.9418 21.9696 18.5795 21.9696 18.1506C21.9696 17.7812 22.0407 17.4773 22.1827 17.2386C22.3248 17 22.5165 16.8111 22.758 16.6719C22.9995 16.5327 23.2694 16.4276 23.5676 16.3565C23.8659 16.2855 24.1699 16.2315 24.4796 16.1946C24.8716 16.1491 25.1898 16.1122 25.4341 16.0838C25.6784 16.0526 25.856 16.0028 25.9668 15.9347C26.0776 15.8665 26.133 15.7557 26.133 15.6023V15.5724C26.133 15.2003 26.0279 14.9119 25.8176 14.7074C25.6103 14.5028 25.3006 14.4006 24.8887 14.4006C24.4597 14.4006 24.1216 14.4957 23.8745 14.6861C23.6301 14.8736 23.4611 15.0824 23.3674 15.3125L22.1699 15.0398C22.312 14.642 22.5194 14.321 22.7921 14.0767C23.0676 13.8295 23.3844 13.6506 23.7424 13.5398C24.1003 13.4261 24.4767 13.3693 24.8716 13.3693C25.133 13.3693 25.41 13.4006 25.7026 13.4631C25.998 13.5227 26.2736 13.6335 26.5293 13.7955C26.7878 13.9574 26.9995 14.1889 27.1642 14.4901C27.329 14.7884 27.4114 15.1761 27.4114 15.6534V20H26.1671V19.1051H26.1159C26.0336 19.2699 25.91 19.4318 25.7452 19.5909C25.5804 19.75 25.3688 19.8821 25.1103 19.9872C24.8517 20.0923 24.5421 20.1449 24.1813 20.1449ZM24.4583 19.1222C24.8105 19.1222 25.1117 19.0526 25.3617 18.9134C25.6145 18.7741 25.8063 18.5923 25.937 18.3679C26.0705 18.1406 26.1373 17.8977 26.1373 17.6392V16.7955C26.0918 16.8409 26.0037 16.8835 25.873 16.9233C25.7452 16.9602 25.5989 16.9929 25.4341 17.0213C25.2694 17.0469 25.1088 17.071 24.9526 17.0938C24.7963 17.1136 24.6657 17.1307 24.5605 17.1449C24.3134 17.1761 24.0875 17.2287 23.883 17.3026C23.6813 17.3764 23.5194 17.483 23.3972 17.6222C23.2779 17.7585 23.2182 17.9403 23.2182 18.1676C23.2182 18.483 23.3347 18.7216 23.5676 18.8835C23.8006 19.0426 24.0975 19.1222 24.4583 19.1222ZM30.3826 16.1136V20H29.1085V13.4545H30.3315V14.5199H30.4125C30.563 14.1733 30.7988 13.8949 31.1199 13.6847C31.4437 13.4744 31.8514 13.3693 32.3429 13.3693C32.7889 13.3693 33.1795 13.4631 33.5147 13.6506C33.85 13.8352 34.1099 14.1108 34.2946 14.4773C34.4792 14.8437 34.5716 15.2969 34.5716 15.8366V20H33.2974V15.9901C33.2974 15.5156 33.1738 15.1449 32.9267 14.8778C32.6795 14.608 32.34 14.473 31.9082 14.473C31.6127 14.473 31.35 14.5369 31.1199 14.6648C30.8926 14.7926 30.7122 14.9801 30.5787 15.2273C30.448 15.4716 30.3826 15.767 30.3826 16.1136ZM39.0247 22.5909C38.5048 22.5909 38.0574 22.5227 37.6824 22.3864C37.3102 22.25 37.0062 22.0696 36.7704 21.8452C36.5346 21.6207 36.3585 21.375 36.242 21.108L37.3372 20.6562C37.4139 20.7812 37.5162 20.9134 37.644 21.0526C37.7747 21.1946 37.9508 21.3153 38.1724 21.4148C38.3968 21.5142 38.6852 21.5639 39.0375 21.5639C39.5204 21.5639 39.9196 21.446 40.2349 21.2102C40.5502 20.9773 40.7079 20.6051 40.7079 20.0938V18.8068H40.627C40.5502 18.946 40.4395 19.1009 40.2946 19.2713C40.1525 19.4418 39.9565 19.5895 39.7065 19.7145C39.4565 19.8395 39.1312 19.902 38.7306 19.902C38.2136 19.902 37.7477 19.7812 37.3329 19.5398C36.921 19.2955 36.5943 18.9361 36.3528 18.4616C36.1142 17.9844 35.9949 17.3977 35.9949 16.7017C35.9949 16.0057 36.1127 15.4091 36.3485 14.9119C36.5872 14.4148 36.9139 14.0341 37.3287 13.7699C37.7434 13.5028 38.2136 13.3693 38.7392 13.3693C39.1454 13.3693 39.4735 13.4375 39.7235 13.5739C39.9735 13.7074 40.1681 13.8636 40.3074 14.0426C40.4494 14.2216 40.5588 14.3793 40.6355 14.5156H40.7292V13.4545H41.9778V20.1449C41.9778 20.7074 41.8471 21.169 41.5858 21.5298C41.3244 21.8906 40.9707 22.1577 40.5247 22.331C40.0815 22.5043 39.5815 22.5909 39.0247 22.5909ZM39.0119 18.8452C39.3784 18.8452 39.688 18.7599 39.9409 18.5895C40.1966 18.4162 40.3897 18.169 40.5204 17.848C40.6539 17.5241 40.7207 17.1364 40.7207 16.6847C40.7207 16.2443 40.6554 15.8565 40.5247 15.5213C40.394 15.1861 40.2022 14.9247 39.9494 14.7372C39.6966 14.5469 39.3841 14.4517 39.0119 14.4517C38.6284 14.4517 38.3088 14.5511 38.0531 14.75C37.7974 14.946 37.6042 15.2131 37.4735 15.5511C37.3457 15.8892 37.2818 16.267 37.2818 16.6847C37.2818 17.1136 37.3471 17.4901 37.4778 17.8139C37.6085 18.1378 37.8017 18.3906 38.0574 18.5724C38.3159 18.7543 38.6341 18.8452 39.0119 18.8452ZM46.5076 20.1321C45.8627 20.1321 45.3074 19.9943 44.8414 19.7188C44.3784 19.4403 44.0204 19.0497 43.7676 18.5469C43.5176 18.0412 43.3926 17.4489 43.3926 16.7699C43.3926 16.0994 43.5176 15.5085 43.7676 14.9972C44.0204 14.4858 44.3727 14.0866 44.8244 13.7997C45.2789 13.5128 45.8102 13.3693 46.4181 13.3693C46.7875 13.3693 47.1454 13.4304 47.492 13.5526C47.8386 13.6747 48.1497 13.8665 48.4252 14.1278C48.7008 14.3892 48.9181 14.7287 49.0772 15.1463C49.2363 15.5611 49.3159 16.0653 49.3159 16.6591V17.1108H44.1127V16.1562H48.0673C48.0673 15.821 47.9991 15.5241 47.8627 15.2656C47.7264 15.0043 47.5346 14.7983 47.2875 14.6477C47.0431 14.4972 46.7562 14.4219 46.4267 14.4219C46.0687 14.4219 45.7562 14.5099 45.4892 14.6861C45.225 14.8594 45.0204 15.0866 44.8755 15.3679C44.7335 15.6463 44.6625 15.9489 44.6625 16.2756V17.0213C44.6625 17.4588 44.7392 17.831 44.8926 18.1378C45.0488 18.4446 45.2662 18.679 45.5446 18.8409C45.823 19 46.1483 19.0795 46.5204 19.0795C46.7619 19.0795 46.9821 19.0455 47.1809 18.9773C47.3798 18.9062 47.5517 18.8011 47.6966 18.6619C47.8414 18.5227 47.9522 18.3509 48.0289 18.1463L49.2349 18.3636C49.1383 18.7187 48.965 19.0298 48.715 19.2969C48.4679 19.5611 48.1568 19.767 47.7818 19.9148C47.4096 20.0597 46.9849 20.1321 46.5076 20.1321ZM53.1799 20.1278C52.6515 20.1278 52.1799 19.9929 51.7651 19.723C51.3532 19.4503 51.0293 19.0625 50.7935 18.5597C50.5605 18.054 50.4441 17.4474 50.4441 16.7401C50.4441 16.0327 50.562 15.4276 50.7978 14.9247C51.0364 14.4219 51.3631 14.0369 51.7779 13.7699C52.1926 13.5028 52.6628 13.3693 53.1884 13.3693C53.5946 13.3693 53.9213 13.4375 54.1685 13.5739C54.4185 13.7074 54.6117 13.8636 54.748 14.0426C54.8873 14.2216 54.9952 14.3793 55.0719 14.5156H55.1486V11.2727H56.4228V20H55.1784V18.9815H55.0719C54.9952 19.1207 54.8844 19.2798 54.7395 19.4588C54.5975 19.6378 54.4015 19.794 54.1515 19.9276C53.9015 20.0611 53.5776 20.1278 53.1799 20.1278ZM53.4611 19.0412C53.8276 19.0412 54.1373 18.9446 54.3901 18.7514C54.6458 18.5554 54.839 18.2841 54.9696 17.9375C55.1032 17.5909 55.1699 17.1875 55.1699 16.7273C55.1699 16.2727 55.1046 15.875 54.9739 15.5341C54.8432 15.1932 54.6515 14.9276 54.3986 14.7372C54.1458 14.5469 53.8333 14.4517 53.4611 14.4517C53.0776 14.4517 52.758 14.5511 52.5023 14.75C52.2466 14.9489 52.0534 15.2202 51.9228 15.5639C51.7949 15.9077 51.731 16.2955 51.731 16.7273C51.731 17.1648 51.7963 17.5582 51.927 17.9077C52.0577 18.2571 52.2509 18.5341 52.5066 18.7386C52.7651 18.9403 53.0833 19.0412 53.4611 19.0412ZM67.0165 13.4545L64.6429 20H63.2793L60.9015 13.4545H62.2694L63.927 18.4915H63.9952L65.6486 13.4545H67.0165ZM70.8123 20.1321C70.1674 20.1321 69.612 19.9943 69.1461 19.7188C68.6831 19.4403 68.3251 19.0497 68.0723 18.5469C67.8223 18.0412 67.6973 17.4489 67.6973 16.7699C67.6973 16.0994 67.8223 15.5085 68.0723 14.9972C68.3251 14.4858 68.6774 14.0866 69.1291 13.7997C69.5836 13.5128 70.1149 13.3693 70.7228 13.3693C71.0922 13.3693 71.4501 13.4304 71.7967 13.5526C72.1433 13.6747 72.4544 13.8665 72.7299 14.1278C73.0055 14.3892 73.2228 14.7287 73.3819 15.1463C73.541 15.5611 73.6206 16.0653 73.6206 16.6591V17.1108H68.4174V16.1562H72.372C72.372 15.821 72.3038 15.5241 72.1674 15.2656C72.0311 15.0043 71.8393 14.7983 71.5922 14.6477C71.3478 14.4972 71.0609 14.4219 70.7314 14.4219C70.3734 14.4219 70.0609 14.5099 69.7939 14.6861C69.5297 14.8594 69.3251 15.0866 69.1802 15.3679C69.0382 15.6463 68.9672 15.9489 68.9672 16.2756V17.0213C68.9672 17.4588 69.0439 17.831 69.1973 18.1378C69.3535 18.4446 69.5708 18.679 69.8493 18.8409C70.1277 19 70.4529 19.0795 70.8251 19.0795C71.0666 19.0795 71.2868 19.0455 71.4856 18.9773C71.6845 18.9062 71.8564 18.8011 72.0012 18.6619C72.1461 18.5227 72.2569 18.3509 72.3336 18.1463L73.5396 18.3636C73.443 18.7187 73.2697 19.0298 73.0197 19.2969C72.7725 19.5611 72.4615 19.767 72.0865 19.9148C71.7143 20.0597 71.2896 20.1321 70.8123 20.1321ZM75.0343 20V13.4545H76.2658V14.4943H76.334C76.4533 14.142 76.6635 13.8651 76.9647 13.6634C77.2686 13.4588 77.6124 13.3565 77.9959 13.3565C78.0755 13.3565 78.1692 13.3594 78.2772 13.3651C78.388 13.3707 78.4746 13.3778 78.5371 13.3864V14.6051C78.486 14.5909 78.3951 14.5753 78.2644 14.5582C78.1337 14.5384 78.003 14.5284 77.8723 14.5284C77.5712 14.5284 77.3027 14.5923 77.0669 14.7202C76.834 14.8452 76.6493 15.0199 76.513 15.2443C76.3766 15.4659 76.3084 15.7187 76.3084 16.0028V20H75.0343ZM84.5446 15.0526L83.3897 15.2571C83.3414 15.1094 83.2647 14.9687 83.1596 14.8352C83.0574 14.7017 82.9181 14.5923 82.742 14.5071C82.5659 14.4219 82.3457 14.3793 82.0815 14.3793C81.7207 14.3793 81.4196 14.4602 81.1781 14.6222C80.9366 14.7812 80.8159 14.9872 80.8159 15.2401C80.8159 15.4588 80.8968 15.6349 81.0588 15.7685C81.2207 15.902 81.4821 16.0114 81.8429 16.0966L82.8826 16.3352C83.4849 16.4744 83.9338 16.6889 84.2292 16.9787C84.5247 17.2685 84.6724 17.6449 84.6724 18.108C84.6724 18.5 84.5588 18.8494 84.3315 19.1562C84.1071 19.4602 83.7931 19.6989 83.3897 19.8722C82.9892 20.0455 82.5247 20.1321 81.9963 20.1321C81.2633 20.1321 80.6653 19.9759 80.2022 19.6634C79.7392 19.348 79.4551 18.9006 79.35 18.321L80.5815 18.1335C80.6582 18.4545 80.8159 18.6974 81.0545 18.8622C81.2931 19.0241 81.6042 19.1051 81.9877 19.1051C82.4054 19.1051 82.7392 19.0185 82.9892 18.8452C83.2392 18.669 83.3642 18.4545 83.3642 18.2017C83.3642 17.9972 83.2875 17.8253 83.1341 17.6861C82.9835 17.5469 82.752 17.4418 82.4395 17.3707L81.3315 17.1278C80.7207 16.9886 80.269 16.767 79.9764 16.4631C79.6866 16.1591 79.5417 15.7741 79.5417 15.3082C79.5417 14.9219 79.6497 14.5838 79.8656 14.294C80.0815 14.0043 80.3798 13.7784 80.7605 13.6165C81.1412 13.4517 81.5772 13.3693 82.0687 13.3693C82.7761 13.3693 83.3329 13.5227 83.7392 13.8295C84.1454 14.1335 84.4139 14.5412 84.5446 15.0526ZM86.0733 20V13.4545H87.3475V20H86.0733ZM86.7168 12.4446C86.4952 12.4446 86.3049 12.3707 86.1458 12.223C85.9895 12.0724 85.9114 11.8935 85.9114 11.6861C85.9114 11.4759 85.9895 11.2969 86.1458 11.1491C86.3049 10.9986 86.4952 10.9233 86.7168 10.9233C86.9384 10.9233 87.1273 10.9986 87.2836 11.1491C87.4426 11.2969 87.5222 11.4759 87.5222 11.6861C87.5222 11.8935 87.4426 12.0724 87.2836 12.223C87.1273 12.3707 86.9384 12.4446 86.7168 12.4446ZM91.8187 20.1321C91.2051 20.1321 90.6696 19.9915 90.2122 19.7102C89.7548 19.429 89.3997 19.0355 89.1468 18.5298C88.894 18.0241 88.7676 17.4332 88.7676 16.7571C88.7676 16.0781 88.894 15.4844 89.1468 14.9759C89.3997 14.4673 89.7548 14.0724 90.2122 13.7912C90.6696 13.5099 91.2051 13.3693 91.8187 13.3693C92.4324 13.3693 92.9679 13.5099 93.4252 13.7912C93.8826 14.0724 94.2377 14.4673 94.4906 14.9759C94.7434 15.4844 94.8699 16.0781 94.8699 16.7571C94.8699 17.4332 94.7434 18.0241 94.4906 18.5298C94.2377 19.0355 93.8826 19.429 93.4252 19.7102C92.9679 19.9915 92.4324 20.1321 91.8187 20.1321ZM91.823 19.0625C92.2207 19.0625 92.5502 18.9574 92.8116 18.7472C93.073 18.5369 93.2662 18.2571 93.3912 17.9077C93.519 17.5582 93.5829 17.1733 93.5829 16.7528C93.5829 16.3352 93.519 15.9517 93.3912 15.6023C93.2662 15.25 93.073 14.9673 92.8116 14.7543C92.5502 14.5412 92.2207 14.4347 91.823 14.4347C91.4224 14.4347 91.09 14.5412 90.8258 14.7543C90.5645 14.9673 90.3699 15.25 90.242 15.6023C90.117 15.9517 90.0545 16.3352 90.0545 16.7528C90.0545 17.1733 90.117 17.5582 90.242 17.9077C90.3699 18.2571 90.5645 18.5369 90.8258 18.7472C91.09 18.9574 91.4224 19.0625 91.823 19.0625ZM97.5662 16.1136V20H96.2921V13.4545H97.5151V14.5199H97.5961C97.7466 14.1733 97.9824 13.8949 98.3034 13.6847C98.6273 13.4744 99.035 13.3693 99.5265 13.3693C99.9725 13.3693 100.363 13.4631 100.698 13.6506C101.034 13.8352 101.294 14.1108 101.478 14.4773C101.663 14.8437 101.755 15.2969 101.755 15.8366V20H100.481V15.9901C100.481 15.5156 100.357 15.1449 100.11 14.8778C99.8631 14.608 99.5236 14.473 99.0918 14.473C98.7963 14.473 98.5336 14.5369 98.3034 14.6648C98.0762 14.7926 97.8958 14.9801 97.7623 15.2273C97.6316 15.4716 97.5662 15.767 97.5662 16.1136Z" fill="black"/>
<g filter="url(#filter1_di_554_6027)">
<path d="M262 0H244C237.373 0 232 5.37258 232 12V19C232 25.6274 237.373 31 244 31H262C268.627 31 274 25.6274 274 19V12C274 5.37258 268.627 0 262 0Z" fill="#CBCDFF"/>
</g>
<path d="M281.524 18.9176C281.291 18.9176 281.091 18.8352 280.923 18.6705C280.756 18.5028 280.672 18.3011 280.672 18.0653C280.672 17.8324 280.756 17.6335 280.923 17.4688C281.091 17.3011 281.291 17.2173 281.524 17.2173C281.757 17.2173 281.957 17.3011 282.125 17.4688C282.293 17.6335 282.376 17.8324 282.376 18.0653C282.376 18.2216 282.337 18.3651 282.257 18.4957C282.18 18.6236 282.078 18.7259 281.95 18.8026C281.822 18.8793 281.68 18.9176 281.524 18.9176ZM281.524 14.5455C281.291 14.5455 281.091 14.4631 280.923 14.2983C280.756 14.1307 280.672 13.929 280.672 13.6932C280.672 13.4602 280.756 13.2614 280.923 13.0966C281.091 12.929 281.291 12.8452 281.524 12.8452C281.757 12.8452 281.957 12.929 282.125 13.0966C282.293 13.2614 282.376 13.4602 282.376 13.6932C282.376 13.8494 282.337 13.9929 282.257 14.1236C282.18 14.2514 282.078 14.3537 281.95 14.4304C281.822 14.5071 281.68 14.5455 281.524 14.5455ZM290.28 20.1449C289.607 20.142 289.032 19.9645 288.554 19.6122C288.077 19.2599 287.712 18.7472 287.459 18.0739C287.206 17.4006 287.08 16.5895 287.08 15.6406C287.08 14.6946 287.206 13.8864 287.459 13.2159C287.715 12.5455 288.081 12.0341 288.559 11.6818C289.039 11.3295 289.613 11.1534 290.28 11.1534C290.948 11.1534 291.52 11.331 291.998 11.6861C292.475 12.0384 292.84 12.5497 293.093 13.2202C293.348 13.8878 293.476 14.6946 293.476 15.6406C293.476 16.5923 293.35 17.4048 293.097 18.0781C292.844 18.7486 292.479 19.2614 292.002 19.6165C291.525 19.9688 290.951 20.1449 290.28 20.1449ZM290.28 19.0071C290.871 19.0071 291.333 18.7188 291.665 18.142C292 17.5653 292.168 16.7315 292.168 15.6406C292.168 14.9162 292.091 14.304 291.938 13.804C291.787 13.3011 291.57 12.9205 291.286 12.6619C291.005 12.4006 290.669 12.2699 290.28 12.2699C289.692 12.2699 289.23 12.5597 288.895 13.1392C288.56 13.7187 288.391 14.5526 288.388 15.6406C288.388 16.3679 288.463 16.983 288.614 17.4858C288.767 17.9858 288.985 18.3651 289.266 18.6236C289.547 18.8793 289.885 19.0071 290.28 19.0071ZM295.528 20.081C295.295 20.081 295.095 19.9986 294.927 19.8338C294.76 19.6662 294.676 19.4645 294.676 19.2287C294.676 18.9957 294.76 18.7969 294.927 18.6321C295.095 18.4645 295.295 18.3807 295.528 18.3807C295.761 18.3807 295.961 18.4645 296.129 18.6321C296.297 18.7969 296.38 18.9957 296.38 19.2287C296.38 19.3849 296.341 19.5284 296.261 19.6591C296.184 19.7869 296.082 19.8892 295.954 19.9659C295.826 20.0426 295.684 20.081 295.528 20.081ZM300.326 11.2727V20H299.005V12.5938H298.954L296.866 13.9574V12.696L299.044 11.2727H300.326ZM303.04 20.081C302.807 20.081 302.607 19.9986 302.439 19.8338C302.271 19.6662 302.188 19.4645 302.188 19.2287C302.188 18.9957 302.271 18.7969 302.439 18.6321C302.607 18.4645 302.807 18.3807 303.04 18.3807C303.273 18.3807 303.473 18.4645 303.641 18.6321C303.808 18.7969 303.892 18.9957 303.892 19.2287C303.892 19.3849 303.852 19.5284 303.773 19.6591C303.696 19.7869 303.594 19.8892 303.466 19.9659C303.338 20.0426 303.196 20.081 303.04 20.081ZM308.304 20.1449C307.63 20.142 307.055 19.9645 306.578 19.6122C306.1 19.2599 305.735 18.7472 305.483 18.0739C305.23 17.4006 305.103 16.5895 305.103 15.6406C305.103 14.6946 305.23 13.8864 305.483 13.2159C305.738 12.5455 306.105 12.0341 306.582 11.6818C307.062 11.3295 307.636 11.1534 308.304 11.1534C308.971 11.1534 309.544 11.331 310.021 11.6861C310.498 12.0384 310.863 12.5497 311.116 13.2202C311.372 13.8878 311.5 14.6946 311.5 15.6406C311.5 16.5923 311.373 17.4048 311.12 18.0781C310.868 18.7486 310.502 19.2614 310.025 19.6165C309.548 19.9688 308.974 20.1449 308.304 20.1449ZM308.304 19.0071C308.895 19.0071 309.356 18.7188 309.689 18.142C310.024 17.5653 310.191 16.7315 310.191 15.6406C310.191 14.9162 310.115 14.304 309.961 13.804C309.811 13.3011 309.593 12.9205 309.309 12.6619C309.028 12.4006 308.693 12.2699 308.304 12.2699C307.716 12.2699 307.254 12.5597 306.919 13.1392C306.583 13.7187 306.414 14.5526 306.412 15.6406C306.412 16.3679 306.487 16.983 306.637 17.4858C306.791 17.9858 307.008 18.3651 307.289 18.6236C307.571 18.8793 307.909 19.0071 308.304 19.0071Z" fill="black"/>
<g filter="url(#filter2_di_554_6027)">
<path d="M371 0H353C346.373 0 341 5.37258 341 12V19C341 25.6274 346.373 31 353 31H371C377.627 31 383 25.6274 383 19V12C383 5.37258 377.627 0 371 0Z" fill="#FFF4CB"/>
</g>
<path d="M389.434 18.9176C389.201 18.9176 389.001 18.8352 388.833 18.6705C388.666 18.5028 388.582 18.3011 388.582 18.0653C388.582 17.8324 388.666 17.6335 388.833 17.4688C389.001 17.3011 389.201 17.2173 389.434 17.2173C389.667 17.2173 389.868 17.3011 390.035 17.4688C390.203 17.6335 390.287 17.8324 390.287 18.0653C390.287 18.2216 390.247 18.3651 390.167 18.4957C390.091 18.6236 389.988 18.7259 389.86 18.8026C389.733 18.8793 389.591 18.9176 389.434 18.9176ZM389.434 14.5455C389.201 14.5455 389.001 14.4631 388.833 14.2983C388.666 14.1307 388.582 13.929 388.582 13.6932C388.582 13.4602 388.666 13.2614 388.833 13.0966C389.001 12.929 389.201 12.8452 389.434 12.8452C389.667 12.8452 389.868 12.929 390.035 13.0966C390.203 13.2614 390.287 13.4602 390.287 13.6932C390.287 13.8494 390.247 13.9929 390.167 14.1236C390.091 14.2514 389.988 14.3537 389.86 14.4304C389.733 14.5071 389.591 14.5455 389.434 14.5455ZM398.19 20.1449C397.517 20.142 396.942 19.9645 396.464 19.6122C395.987 19.2599 395.622 18.7472 395.369 18.0739C395.116 17.4006 394.99 16.5895 394.99 15.6406C394.99 14.6946 395.116 13.8864 395.369 13.2159C395.625 12.5455 395.991 12.0341 396.469 11.6818C396.949 11.3295 397.523 11.1534 398.19 11.1534C398.858 11.1534 399.43 11.331 399.908 11.6861C400.385 12.0384 400.75 12.5497 401.003 13.2202C401.259 13.8878 401.386 14.6946 401.386 15.6406C401.386 16.5923 401.26 17.4048 401.007 18.0781C400.754 18.7486 400.389 19.2614 399.912 19.6165C399.435 19.9688 398.861 20.1449 398.19 20.1449ZM398.19 19.0071C398.781 19.0071 399.243 18.7188 399.575 18.142C399.911 17.5653 400.078 16.7315 400.078 15.6406C400.078 14.9162 400.001 14.304 399.848 13.804C399.697 13.3011 399.48 12.9205 399.196 12.6619C398.915 12.4006 398.58 12.2699 398.19 12.2699C397.602 12.2699 397.141 12.5597 396.805 13.1392C396.47 13.7187 396.301 14.5526 396.298 15.6406C396.298 16.3679 396.374 16.983 396.524 17.4858C396.678 17.9858 396.895 18.3651 397.176 18.6236C397.457 18.8793 397.795 19.0071 398.19 19.0071ZM403.438 20.081C403.205 20.081 403.005 19.9986 402.837 19.8338C402.67 19.6662 402.586 19.4645 402.586 19.2287C402.586 18.9957 402.67 18.7969 402.837 18.6321C403.005 18.4645 403.205 18.3807 403.438 18.3807C403.671 18.3807 403.871 18.4645 404.039 18.6321C404.207 18.7969 404.29 18.9957 404.29 19.2287C404.29 19.3849 404.251 19.5284 404.171 19.6591C404.094 19.7869 403.992 19.8892 403.864 19.9659C403.737 20.0426 403.594 20.081 403.438 20.081ZM408.702 20.1449C408.029 20.142 407.453 19.9645 406.976 19.6122C406.499 19.2599 406.134 18.7472 405.881 18.0739C405.628 17.4006 405.502 16.5895 405.502 15.6406C405.502 14.6946 405.628 13.8864 405.881 13.2159C406.137 12.5455 406.503 12.0341 406.98 11.6818C407.461 11.3295 408.034 11.1534 408.702 11.1534C409.37 11.1534 409.942 11.331 410.419 11.6861C410.897 12.0384 411.262 12.5497 411.515 13.2202C411.77 13.8878 411.898 14.6946 411.898 15.6406C411.898 16.5923 411.772 17.4048 411.519 18.0781C411.266 18.7486 410.901 19.2614 410.424 19.6165C409.946 19.9688 409.373 20.1449 408.702 20.1449ZM408.702 19.0071C409.293 19.0071 409.755 18.7188 410.087 18.142C410.422 17.5653 410.59 16.7315 410.59 15.6406C410.59 14.9162 410.513 14.304 410.36 13.804C410.209 13.3011 409.992 12.9205 409.708 12.6619C409.426 12.4006 409.091 12.2699 408.702 12.2699C408.114 12.2699 407.652 12.5597 407.317 13.1392C406.982 13.7187 406.813 14.5526 406.81 15.6406C406.81 16.3679 406.885 16.983 407.036 17.4858C407.189 17.9858 407.407 18.3651 407.688 18.6236C407.969 18.8793 408.307 19.0071 408.702 19.0071ZM413.95 20.081C413.717 20.081 413.517 19.9986 413.349 19.8338C413.181 19.6662 413.098 19.4645 413.098 19.2287C413.098 18.9957 413.181 18.7969 413.349 18.6321C413.517 18.4645 413.717 18.3807 413.95 18.3807C414.183 18.3807 414.383 18.4645 414.551 18.6321C414.718 18.7969 414.802 18.9957 414.802 19.2287C414.802 19.3849 414.762 19.5284 414.683 19.6591C414.606 19.7869 414.504 19.8892 414.376 19.9659C414.248 20.0426 414.106 20.081 413.95 20.081ZM417.515 13.4545L418.959 16.0028L420.417 13.4545H421.81L419.769 16.7273L421.827 20H420.434L418.959 17.554L417.489 20H416.091L418.128 16.7273L416.117 13.4545H417.515Z" fill="black"/>
<defs>
<filter id="filter0_di_554_6027" x="119" y="0" width="50" height="39" filterUnits="userSpaceOnUse" color-interpolation-filters="sRGB">
<feFlood flood-opacity="0" result="BackgroundImageFix"/>
<feColorMatrix in="SourceAlpha" type="matrix" values="0 0 0 0 0 0 0 0 0 0 0 0 0 0 0 0 0 0 127 0" result="hardAlpha"/>
<feOffset dy="4"/>
<feGaussianBlur stdDeviation="2"/>
<feComposite in2="hardAlpha" operator="out"/>
<feColorMatrix type="matrix" values="0 0 0 0 0 0 0 0 0 0 0 0 0 0 0 0 0 0 0.25 0"/>
<feBlend mode="normal" in2="BackgroundImageFix" result="effect1_dropShadow_554_6027"/>
<feBlend mode="normal" in="SourceGraphic" in2="effect1_dropShadow_554_6027" result="shape"/>
<feColorMatrix in="SourceAlpha" type="matrix" values="0 0 0 0 0 0 0 0 0 0 0 0 0 0 0 0 0 0 127 0" result="hardAlpha"/>
<feOffset dx="4" dy="6"/>
<feGaussianBlur stdDeviation="4"/>
<feComposite in2="hardAlpha" operator="arithmetic" k2="-1" k3="1"/>
<feColorMatrix type="matrix" values="0 0 0 0 1 0 0 0 0 1 0 0 0 0 1 0 0 0 0.59 0"/>
<feBlend mode="normal" in2="shape" result="effect2_innerShadow_554_6027"/>
</filter>
<filter id="filter1_di_554_6027" x="228" y="0" width="50" height="39" filterUnits="userSpaceOnUse" color-interpolation-filters="sRGB">
<feFlood flood-opacity="0" result="BackgroundImageFix"/>
<feColorMatrix in="SourceAlpha" type="matrix" values="0 0 0 0 0 0 0 0 0 0 0 0 0 0 0 0 0 0 127 0" result="hardAlpha"/>
<feOffset dy="4"/>
<feGaussianBlur stdDeviation="2"/>
<feComposite in2="hardAlpha" operator="out"/>
<feColorMatrix type="matrix" values="0 0 0 0 0 0 0 0 0 0 0 0 0 0 0 0 0 0 0.25 0"/>
<feBlend mode="normal" in2="BackgroundImageFix" result="effect1_dropShadow_554_6027"/>
<feBlend mode="normal" in="SourceGraphic" in2="effect1_dropShadow_554_6027" result="shape"/>
<feColorMatrix in="SourceAlpha" type="matrix" values="0 0 0 0 0 0 0 0 0 0 0 0 0 0 0 0 0 0 127 0" result="hardAlpha"/>
<feOffset dx="4" dy="6"/>
<feGaussianBlur stdDeviation="4"/>
<feComposite in2="hardAlpha" operator="arithmetic" k2="-1" k3="1"/>
<feColorMatrix type="matrix" values="0 0 0 0 1 0 0 0 0 1 0 0 0 0 1 0 0 0 0.59 0"/>
<feBlend mode="normal" in2="shape" result="effect2_innerShadow_554_6027"/>
</filter>
<filter id="filter2_di_554_6027" x="337" y="0" width="50" height="39" filterUnits="userSpaceOnUse" color-interpolation-filters="sRGB">
<feFlood flood-opacity="0" result="BackgroundImageFix"/>
<feColorMatrix in="SourceAlpha" type="matrix" values="0 0 0 0 0 0 0 0 0 0 0 0 0 0 0 0 0 0 127 0" result="hardAlpha"/>
<feOffset dy="4"/>
<feGaussianBlur stdDeviation="2"/>
<feComposite in2="hardAlpha" operator="out"/>
<feColorMatrix type="matrix" values="0 0 0 0 0 0 0 0 0 0 0 0 0 0 0 0 0 0 0.25 0"/>
<feBlend mode="normal" in2="BackgroundImageFix" result="effect1_dropShadow_554_6027"/>
<feBlend mode="normal" in="SourceGraphic" in2="effect1_dropShadow_554_6027" result="shape"/>
<feColorMatrix in="SourceAlpha" type="matrix" values="0 0 0 0 0 0 0 0 0 0 0 0 0 0 0 0 0 0 127 0" result="hardAlpha"/>
<feOffset dx="4" dy="6"/>
<feGaussianBlur stdDeviation="4"/>
<feComposite in2="hardAlpha" operator="arithmetic" k2="-1" k3="1"/>
<feColorMatrix type="matrix" values="0 0 0 0 1 0 0 0 0 1 0 0 0 0 1 0 0 0 0.59 0"/>
<feBlend mode="normal" in2="shape" result="effect2_innerShadow_554_6027"/>
</filter>
</defs>
</svg>
