<svg width="56" height="55" viewBox="0 0 56 55" fill="none" xmlns="http://www.w3.org/2000/svg">
<path d="M9.33333 18.3333L13.3379 21.4798C15.9417 23.5257 17.2437 24.5486 18.556 24.7073C19.7057 24.8464 20.867 24.5605 21.814 23.9053C22.8949 23.1575 23.5517 21.6524 24.8652 18.6422L28 11.4583L31.1348 18.6421C32.4483 21.6524 33.1051 23.1575 34.186 23.9053C35.133 24.5605 36.2943 24.8464 37.444 24.7073C38.7563 24.5486 40.0583 23.5257 42.6621 21.4798L46.6667 18.3333L42 45.8333H14L9.33333 18.3333Z" fill="#FFDD2D"/>
<path d="M30.3333 9.16667C30.3333 10.4323 29.2887 11.4583 28 11.4583C26.7113 11.4583 25.6667 10.4323 25.6667 9.16667C25.6667 7.90101 26.7113 6.875 28 6.875C29.2887 6.875 30.3333 7.90101 30.3333 9.16667Z" fill="#FFDD2D"/>
<path d="M11.6667 16.0417C11.6667 17.3073 10.622 18.3333 9.33333 18.3333C8.04467 18.3333 7 17.3073 7 16.0417C7 14.776 8.04467 13.75 9.33333 13.75C10.622 13.75 11.6667 14.776 11.6667 16.0417Z" fill="#FFDD2D"/>
<path d="M49 16.0417C49 17.3073 47.9553 18.3333 46.6667 18.3333C45.378 18.3333 44.3333 17.3073 44.3333 16.0417C44.3333 14.776 45.378 13.75 46.6667 13.75C47.9553 13.75 49 14.776 49 16.0417Z" fill="#FFDD2D"/>
<path d="M9.33333 18.3333L14 45.8333H42L46.6667 18.3333M9.33333 18.3333L13.3379 21.4798C15.9417 23.5257 17.2437 24.5486 18.556 24.7073C19.7057 24.8464 20.867 24.5605 21.814 23.9053C22.8949 23.1575 23.5517 21.6524 24.8652 18.6422L28 11.4583M9.33333 18.3333C10.622 18.3333 11.6667 17.3073 11.6667 16.0417C11.6667 14.776 10.622 13.75 9.33333 13.75C8.04467 13.75 7 14.776 7 16.0417C7 17.3073 8.04467 18.3333 9.33333 18.3333ZM46.6667 18.3333L42.6621 21.4798C40.0583 23.5257 38.7563 24.5486 37.444 24.7073C36.2943 24.8464 35.133 24.5605 34.186 23.9053C33.1051 23.1575 32.4483 21.6524 31.1348 18.6421L28 11.4583M46.6667 18.3333C47.9553 18.3333 49 17.3073 49 16.0417C49 14.776 47.9553 13.75 46.6667 13.75C45.378 13.75 44.3333 14.776 44.3333 16.0417C44.3333 17.3073 45.378 18.3333 46.6667 18.3333ZM28 11.4583C29.2887 11.4583 30.3333 10.4323 30.3333 9.16667C30.3333 7.90101 29.2887 6.875 28 6.875C26.7113 6.875 25.6667 7.90101 25.6667 9.16667C25.6667 10.4323 26.7113 11.4583 28 11.4583ZM28 9.16667H28.0233M46.6667 16.0417H46.69M9.33333 16.0417H9.35667" stroke="#FFDD2D" stroke-width="2" stroke-linecap="round" stroke-linejoin="round"/>
</svg>
