<svg width="8" height="14" viewBox="0 0 8 14" fill="none" xmlns="http://www.w3.org/2000/svg">
<path d="M1.02577 13.341C0.943395 13.341 0.840425 13.2998 0.778643 13.238C0.634485 13.0939 0.634485 12.8673 0.758049 12.7232L5.94775 7.20397C6.05072 7.101 6.05072 6.91566 5.94775 6.79209L0.758049 1.27289C0.613891 1.12874 0.634485 0.902201 0.778643 0.758043C0.922801 0.613885 1.14934 0.634479 1.29349 0.778637L6.48319 6.29784C6.83329 6.68912 6.83329 7.30694 6.48319 7.67764L1.29349 13.2174C1.21112 13.2998 1.12874 13.341 1.02577 13.341Z" fill="#777777"/>
<path fill-rule="evenodd" clip-rule="evenodd" d="M0.267554 12.2828L5.2368 6.99803L0.28336 1.73009C-0.155305 1.28158 -0.0364916 0.64119 0.312646 0.292052C0.761551 -0.156852 1.40805 -0.0387778 1.75948 0.312646L1.77381 0.326984L6.97446 5.85828C7.54183 6.4924 7.5585 7.49771 6.96329 8.12907L1.75972 13.6837C1.58726 13.8561 1.34578 14 1.02576 14C0.770603 14 0.49942 13.8908 0.312646 13.704C-0.0839467 13.3074 -0.0816619 12.6902 0.257685 12.2943L0.267554 12.2828ZM6.48319 7.67764C6.83329 7.30694 6.83329 6.68912 6.48319 6.29784L1.29349 0.778637C1.14934 0.634479 0.922801 0.613885 0.778643 0.758043C0.634485 0.902201 0.613891 1.12874 0.758049 1.27289L5.94775 6.79209C6.05072 6.91566 6.05072 7.101 5.94775 7.20397L0.758049 12.7232C0.634485 12.8673 0.634485 13.0939 0.778643 13.238C0.840425 13.2998 0.943395 13.341 1.02577 13.341C1.12874 13.341 1.21112 13.2998 1.29349 13.2174L6.48319 7.67764Z" fill="#777777"/>
</svg>
