<svg width="12" height="8" viewBox="0 0 12 8" fill="none" xmlns="http://www.w3.org/2000/svg">
<path d="M11.0333 0.409349C10.9636 0.339052 10.8806 0.283257 10.7893 0.24518C10.6979 0.207104 10.5998 0.1875 10.5008 0.1875C10.4018 0.1875 10.3038 0.207104 10.2124 0.24518C10.121 0.283257 10.038 0.339052 9.96832 0.409349L4.38082 6.00435L2.03332 3.64935C1.96093 3.57942 1.87547 3.52443 1.78183 3.48753C1.68819 3.45063 1.58819 3.43253 1.48756 3.43427C1.38692 3.43601 1.28762 3.45756 1.19531 3.49768C1.103 3.5378 1.0195 3.59571 0.949567 3.6681C0.879638 3.74049 0.824652 3.82595 0.787749 3.91959C0.750846 4.01323 0.732749 4.11322 0.73449 4.21386C0.736231 4.31449 0.757777 4.4138 0.797897 4.50611C0.838017 4.59842 0.895926 4.68192 0.968317 4.75185L3.84832 7.63185C3.91804 7.70215 4.00099 7.75794 4.09238 7.79602C4.18378 7.83409 4.28181 7.8537 4.38082 7.8537C4.47983 7.8537 4.57786 7.83409 4.66925 7.79602C4.76064 7.75794 4.84359 7.70215 4.91332 7.63185L11.0333 1.51185C11.1094 1.44162 11.1702 1.35638 11.2118 1.2615C11.2533 1.16663 11.2748 1.06418 11.2748 0.960599C11.2748 0.857023 11.2533 0.754569 11.2118 0.659694C11.1702 0.564819 11.1094 0.47958 11.0333 0.409349Z" fill="#A0A0A0"/>
</svg>
