<svg width="20" height="21" viewBox="0 0 20 21" fill="none" xmlns="http://www.w3.org/2000/svg">
<path d="M9.99935 11.375C10.4596 11.375 10.8327 10.9832 10.8327 10.5C10.8327 10.0168 10.4596 9.625 9.99935 9.625C9.53911 9.625 9.16602 10.0168 9.16602 10.5C9.16602 10.9832 9.53911 11.375 9.99935 11.375Z" stroke="black" strokeWidth="2" strokeLinecap="round" strokeLinejoin="round"/>
<path d="M9.99935 5.25C10.4596 5.25 10.8327 4.85825 10.8327 4.375C10.8327 3.89175 10.4596 3.5 9.99935 3.5C9.53911 3.5 9.16602 3.89175 9.16602 4.375C9.16602 4.85825 9.53911 5.25 9.99935 5.25Z" stroke="black" strokeWidth="2" strokeLinecap="round" strokeLinejoin="round"/>
<path d="M9.99935 17.5C10.4596 17.5 10.8327 17.1082 10.8327 16.625C10.8327 16.1418 10.4596 15.75 9.99935 15.75C9.53911 15.75 9.16602 16.1418 9.16602 16.625C9.16602 17.1082 9.53911 17.5 9.99935 17.5Z" stroke="black" strokeWidth="2" strokeLinecap="round" strokeLinejoin="round"/>
</svg>
