<svg width="21" height="21" viewBox="0 0 21 21" fill="none" xmlns="http://www.w3.org/2000/svg">
<path d="M1.5 1.50016V7.12516H2.15475M2.15475 7.12516C2.90158 5.27806 4.24014 3.73093 5.96066 2.72626C7.68117 1.72158 9.6864 1.31613 11.6621 1.57345C13.6378 1.83076 15.4723 2.73631 16.878 4.14816C18.2838 5.56002 19.1815 7.39838 19.4302 9.37516M2.15475 7.12516H7.125M19.5 19.5002V13.8752H18.8464M18.8464 13.8752C18.0985 15.7212 16.7595 17.2671 15.0392 18.2709C13.3188 19.2746 11.3142 19.6796 9.33911 19.4224C7.36402 19.1652 5.52997 18.2603 4.1241 16.8494C2.71823 15.4384 1.8199 13.6012 1.56975 11.6252M18.8464 13.8752H13.875" stroke="#3F3F46" strokeWidth="2" strokeLinecap="round" strokeLinejoin="round"/>
</svg>
