<svg width="48" height="48" viewBox="0 0 48 48" fill="none" xmlns="http://www.w3.org/2000/svg">
<path d="M16.0327 35.204C16.0329 34.4623 16.3133 33.7511 16.8125 33.2268L25.5762 24.0175L16.8125 14.8082C16.5583 14.5502 16.3555 14.2416 16.2161 13.9004C16.0766 13.5592 16.0032 13.1923 16.0001 12.8209C15.997 12.4496 16.0644 12.0813 16.1982 11.7376C16.332 11.3939 16.5296 11.0817 16.7795 10.8191C17.0294 10.5565 17.3265 10.3489 17.6536 10.2083C17.9806 10.0676 18.3311 9.99688 18.6844 10.0001C19.0378 10.0033 19.387 10.0805 19.7117 10.227C20.0364 10.3736 20.3301 10.5867 20.5756 10.8538L31.2208 22.0403C31.7197 22.5647 32 23.2759 32 24.0175C32 24.759 31.7197 25.4702 31.2208 25.9947L20.5756 37.1812C20.2034 37.5722 19.7292 37.8384 19.2131 37.9463C18.6969 38.0542 18.1619 37.9988 17.6757 37.7872C17.1894 37.5755 16.7738 37.2172 16.4814 36.7574C16.189 36.2976 16.0328 35.757 16.0327 35.204Z" fill="#5AAE8A"/>
</svg>
