<svg width="8" height="8" viewBox="0 0 8 8" fill="none" xmlns="http://www.w3.org/2000/svg">
<mask id="path-1-inside-1_1707_1435" fill="white">
<path d="M4.71314 3.50614L7.35964 0.859644C7.4074 0.813521 7.44549 0.758348 7.47169 0.697346C7.4979 0.636344 7.51169 0.570734 7.51227 0.504345C7.51285 0.437955 7.5002 0.372115 7.47506 0.310667C7.44991 0.249219 7.41279 0.193393 7.36584 0.146447C7.31889 0.0995002 7.26307 0.0623736 7.20162 0.0372332C7.14017 0.0120927 7.07433 -0.00055803 7.00794 1.88785e-05C6.94155 0.000595787 6.87594 0.0143889 6.81494 0.0405934C6.75394 0.0667979 6.69877 0.104889 6.65264 0.152644L4.00614 2.79914L1.35964 0.152644C1.26534 0.0615652 1.13904 0.0111678 1.00794 0.012307C0.876845 0.0134462 0.751439 0.0660308 0.658735 0.158735C0.566031 0.251439 0.513446 0.376845 0.512307 0.507943C0.511168 0.639042 0.561565 0.765343 0.652644 0.859644L3.29914 3.50614L0.652644 6.15264C0.604889 6.19877 0.566798 6.25394 0.540593 6.31494C0.514389 6.37594 0.500596 6.44155 0.500019 6.50794C0.499442 6.57433 0.512093 6.64017 0.537233 6.70162C0.562374 6.76307 0.5995 6.81889 0.646447 6.86584C0.693393 6.91279 0.749219 6.94991 0.810667 6.97506C0.872115 7.0002 0.937955 7.01285 1.00434 7.01227C1.07073 7.01169 1.13634 6.9979 1.19735 6.97169C1.25835 6.94549 1.31352 6.9074 1.35964 6.85964L4.00614 4.21314L6.65264 6.85964C6.74694 6.95072 6.87325 7.00112 7.00434 6.99998C7.13544 6.99884 7.26085 6.94626 7.35355 6.85355C7.44626 6.76085 7.49884 6.63544 7.49998 6.50434C7.50112 6.37325 7.45072 6.24694 7.35964 6.15264L4.71314 3.50614Z"/>
</mask>
<path d="M4.71314 3.50614L7.35964 0.859644C7.4074 0.813521 7.44549 0.758348 7.47169 0.697346C7.4979 0.636344 7.51169 0.570734 7.51227 0.504345C7.51285 0.437955 7.5002 0.372115 7.47506 0.310667C7.44991 0.249219 7.41279 0.193393 7.36584 0.146447C7.31889 0.0995002 7.26307 0.0623736 7.20162 0.0372332C7.14017 0.0120927 7.07433 -0.00055803 7.00794 1.88785e-05C6.94155 0.000595787 6.87594 0.0143889 6.81494 0.0405934C6.75394 0.0667979 6.69877 0.104889 6.65264 0.152644L4.00614 2.79914L1.35964 0.152644C1.26534 0.0615652 1.13904 0.0111678 1.00794 0.012307C0.876845 0.0134462 0.751439 0.0660308 0.658735 0.158735C0.566031 0.251439 0.513446 0.376845 0.512307 0.507943C0.511168 0.639042 0.561565 0.765343 0.652644 0.859644L3.29914 3.50614L0.652644 6.15264C0.604889 6.19877 0.566798 6.25394 0.540593 6.31494C0.514389 6.37594 0.500596 6.44155 0.500019 6.50794C0.499442 6.57433 0.512093 6.64017 0.537233 6.70162C0.562374 6.76307 0.5995 6.81889 0.646447 6.86584C0.693393 6.91279 0.749219 6.94991 0.810667 6.97506C0.872115 7.0002 0.937955 7.01285 1.00434 7.01227C1.07073 7.01169 1.13634 6.9979 1.19735 6.97169C1.25835 6.94549 1.31352 6.9074 1.35964 6.85964L4.00614 4.21314L6.65264 6.85964C6.74694 6.95072 6.87325 7.00112 7.00434 6.99998C7.13544 6.99884 7.26085 6.94626 7.35355 6.85355C7.44626 6.76085 7.49884 6.63544 7.49998 6.50434C7.50112 6.37325 7.45072 6.24694 7.35964 6.15264L4.71314 3.50614Z" fill="#111928"/>
<path d="M4.71314 3.50614L4.00604 2.79904L3.29893 3.50614L4.00604 4.21325L4.71314 3.50614ZM7.35964 0.859644L6.66493 0.140356L6.65868 0.146393L6.65254 0.152537L7.35964 0.859644ZM6.65264 0.152644L7.35975 0.859751L7.3659 0.853606L7.37193 0.847356L6.65264 0.152644ZM4.00614 2.79914L3.29904 3.50625L4.00614 4.21336L4.71325 3.50625L4.00614 2.79914ZM1.35964 0.152644L2.06675 -0.554463L2.06061 -0.560607L2.05436 -0.566644L1.35964 0.152644ZM0.652644 0.859644L-0.066644 1.55436L-0.0606071 1.56061L-0.0544626 1.56675L0.652644 0.859644ZM3.29914 3.50614L4.00625 4.21325L4.71336 3.50614L4.00625 2.79904L3.29914 3.50614ZM0.652644 6.15264L1.34736 6.87193L1.35361 6.8659L1.35975 6.85975L0.652644 6.15264ZM1.35964 6.85964L0.652537 6.15254L0.646393 6.15868L0.640356 6.16493L1.35964 6.85964ZM4.00614 4.21314L4.71325 3.50604L4.00614 2.79893L3.29904 3.50604L4.00614 4.21314ZM6.65264 6.85964L5.94554 7.56675L5.95168 7.5729L5.95793 7.57893L6.65264 6.85964ZM7.35964 6.15264L8.07893 5.45793L8.0729 5.45168L8.06675 5.44554L7.35964 6.15264ZM5.42025 4.21325L8.06675 1.56675L6.65254 0.152537L4.00604 2.79904L5.42025 4.21325ZM8.05436 1.57893C8.19763 1.44056 8.3119 1.27504 8.39051 1.09204L6.55288 0.302654C6.57908 0.241656 6.61717 0.186483 6.66493 0.140356L8.05436 1.57893ZM8.39051 1.09204C8.46912 0.909038 8.5105 0.712209 8.51223 0.513034L6.51231 0.495655C6.51288 0.42926 6.52668 0.363651 6.55288 0.302654L8.39051 1.09204ZM8.51223 0.513034C8.51396 0.313866 8.47601 0.116347 8.40059 -0.0679987L6.54952 0.689333C6.52438 0.627884 6.51173 0.562044 6.51231 0.495655L8.51223 0.513034ZM8.40059 -0.0679987C8.32517 -0.252347 8.21378 -0.419824 8.07295 -0.56066L6.65873 0.853553C6.61179 0.80661 6.57466 0.750785 6.54952 0.689333L8.40059 -0.0679987ZM8.07295 -0.56066C7.93211 -0.701501 7.76463 -0.81288 7.58029 -0.8883L6.82295 0.962767C6.76151 0.937627 6.70568 0.900501 6.65873 0.853553L8.07295 -0.56066ZM7.58029 -0.8883C7.39594 -0.963722 7.19842 -1.00167 6.99925 -0.999943L7.01663 0.999981C6.95024 1.00056 6.8844 0.987907 6.82295 0.962767L7.58029 -0.8883ZM6.99925 -0.999943C6.80009 -0.998213 6.60326 -0.956833 6.42025 -0.87822L7.20963 0.959407C7.14863 0.985611 7.08302 0.999404 7.01663 0.999981L6.99925 -0.999943ZM6.42025 -0.87822C6.23725 -0.799607 6.07173 -0.685334 5.93336 -0.542068L7.37193 0.847356C7.32581 0.895113 7.27063 0.933203 7.20963 0.959407L6.42025 -0.87822ZM5.94554 -0.554462L3.29904 2.09204L4.71325 3.50625L7.35975 0.859751L5.94554 -0.554462ZM4.71325 2.09204L2.06675 -0.554463L0.652537 0.859751L3.29904 3.50625L4.71325 2.09204ZM2.05436 -0.566644C1.77145 -0.83988 1.39255 -0.991073 0.999254 -0.987655L1.01663 1.01227C0.885533 1.01341 0.759232 0.963011 0.664932 0.871932L2.05436 -0.566644ZM0.999254 -0.987655C0.605958 -0.984238 0.22974 -0.826483 -0.0483719 -0.548372L1.36584 0.865842C1.27314 0.958545 1.14773 1.01113 1.01663 1.01227L0.999254 -0.987655ZM-0.0483719 -0.548372C-0.326483 -0.27026 -0.484238 0.105958 -0.487655 0.499254L1.51227 0.516633C1.51113 0.647732 1.45855 0.773138 1.36584 0.865842L-0.0483719 -0.548372ZM-0.487655 0.499254C-0.491073 0.89255 -0.33988 1.27145 -0.066644 1.55436L1.37193 0.164932C1.46301 0.259232 1.51341 0.385533 1.51227 0.516633L-0.487655 0.499254ZM-0.0544626 1.56675L2.59204 4.21325L4.00625 2.79904L1.35975 0.152537L-0.0544626 1.56675ZM2.59204 2.79904L-0.0544625 5.44554L1.35975 6.85975L4.00625 4.21325L2.59204 2.79904ZM-0.0420676 5.43336C-0.185334 5.57173 -0.299607 5.73725 -0.37822 5.92025L1.45941 6.70963C1.4332 6.77063 1.39511 6.82581 1.34736 6.87193L-0.0420676 5.43336ZM-0.37822 5.92025C-0.456833 6.10326 -0.498213 6.30009 -0.499943 6.49925L1.49998 6.51663C1.4994 6.58302 1.48561 6.64863 1.45941 6.70963L-0.37822 5.92025ZM-0.499943 6.49925C-0.501674 6.69842 -0.463722 6.89594 -0.3883 7.08029L1.46277 6.32295C1.48791 6.3844 1.50056 6.45024 1.49998 6.51663L-0.499943 6.49925ZM-0.3883 7.08029C-0.31288 7.26463 -0.201501 7.43211 -0.0606602 7.57295L1.35355 6.15873C1.4005 6.20568 1.43763 6.26151 1.46277 6.32295L-0.3883 7.08029ZM-0.0606602 7.57295C0.0801761 7.71378 0.247653 7.82517 0.432001 7.90059L1.18933 6.04952C1.25078 6.07466 1.30661 6.11179 1.35355 6.15873L-0.0606602 7.57295ZM0.432001 7.90059C0.616347 7.97601 0.813866 8.01396 1.01303 8.01223L0.995655 6.01231C1.06204 6.01173 1.12788 6.02438 1.18933 6.04952L0.432001 7.90059ZM1.01303 8.01223C1.21221 8.0105 1.40904 7.96912 1.59204 7.89051L0.802654 6.05288C0.863651 6.02668 0.92926 6.01288 0.995655 6.01231L1.01303 8.01223ZM1.59204 7.89051C1.77504 7.8119 1.94056 7.69763 2.07893 7.55436L0.640356 6.16493C0.686483 6.11717 0.741656 6.07908 0.802654 6.05288L1.59204 7.89051ZM2.06675 7.56675L4.71325 4.92025L3.29904 3.50604L0.652537 6.15254L2.06675 7.56675ZM3.29904 4.92025L5.94554 7.56675L7.35975 6.15254L4.71325 3.50604L3.29904 4.92025ZM5.95793 7.57893C6.24084 7.85217 6.61974 8.00336 7.01303 7.99994L6.99566 6.00002C7.12675 5.99888 7.25305 6.04928 7.34736 6.14036L5.95793 7.57893ZM7.01303 7.99994C7.40633 7.99653 7.78255 7.83877 8.06066 7.56066L6.64645 6.14645C6.73915 6.05374 6.86455 6.00116 6.99566 6.00002L7.01303 7.99994ZM8.06066 7.56066C8.33877 7.28255 8.49653 6.90633 8.49994 6.51303L6.50002 6.49566C6.50116 6.36455 6.55374 6.23915 6.64645 6.14645L8.06066 7.56066ZM8.49994 6.51303C8.50336 6.11974 8.35217 5.74084 8.07893 5.45793L6.64036 6.84736C6.54928 6.75305 6.49888 6.62675 6.50002 6.49566L8.49994 6.51303ZM8.06675 5.44554L5.42025 2.79904L4.00604 4.21325L6.65254 6.85975L8.06675 5.44554Z" fill="#6B7280" mask="url(#path-1-inside-1_1707_1435)"/>
</svg>
