<svg width="48" height="47" viewBox="0 0 48 47" fill="none" xmlns="http://www.w3.org/2000/svg">
<path d="M31.9673 33.7954C31.9671 33.0834 31.6867 32.4007 31.1875 31.8973L22.4238 23.0564L31.1875 14.2155C31.4417 13.9678 31.6445 13.6716 31.7839 13.344C31.9234 13.0165 31.9968 12.6642 31.9999 12.3077C32.003 11.9512 31.9356 11.5977 31.8018 11.2677C31.668 10.9378 31.4704 10.638 31.2205 10.386C30.9706 10.1339 30.6735 9.93453 30.3464 9.79953C30.0194 9.66454 29.6689 9.59661 29.3156 9.59971C28.9622 9.60281 28.613 9.67687 28.2883 9.81758C27.9636 9.95828 27.6699 10.1628 27.4244 10.4192L16.7792 21.1583C16.2803 21.6617 16 22.3445 16 23.0564C16 23.7683 16.2803 24.4511 16.7792 24.9545L27.4244 35.6936C27.7966 36.0689 28.2708 36.3245 28.7869 36.4281C29.3031 36.5316 29.8381 36.4784 30.3243 36.2753C30.8106 36.0721 31.2262 35.7281 31.5186 35.2867C31.811 34.8453 31.9672 34.3263 31.9673 33.7954Z" fill="#5AAE8A"/>
</svg>
