<svg width="19" height="18" viewBox="0 0 19 18" fill="none" xmlns="http://www.w3.org/2000/svg">
<path fill-rule="evenodd" clip-rule="evenodd" d="M17.848 9.20419C17.848 8.56601 17.7907 7.95237 17.6844 7.36328H9.20801V10.8446H14.0516C13.843 11.9696 13.2089 12.9228 12.2557 13.561V15.8192H15.1644C16.8662 14.2524 17.848 11.9451 17.848 9.20419Z" fill="#4285F4"/>
<path fill-rule="evenodd" clip-rule="evenodd" d="M9.20777 18C11.6378 18 13.675 17.1941 15.1641 15.8195L12.2555 13.5613C11.4496 14.1013 10.4187 14.4204 9.20777 14.4204C6.86368 14.4204 4.87958 12.8372 4.17186 10.71H1.16504V13.0418C2.64595 15.9831 5.68958 18 9.20777 18Z" fill="#34A853"/>
<path fill-rule="evenodd" clip-rule="evenodd" d="M4.1721 10.7098C3.9921 10.1698 3.88983 9.59301 3.88983 8.99983C3.88983 8.40664 3.9921 7.82983 4.1721 7.28983V4.95801H1.16528C0.555735 6.17301 0.208008 7.54755 0.208008 8.99983C0.208008 10.4521 0.555735 11.8266 1.16528 13.0416L4.1721 10.7098Z" fill="#FBBC05"/>
<path fill-rule="evenodd" clip-rule="evenodd" d="M9.20777 3.57955C10.5291 3.57955 11.7155 4.03364 12.6482 4.92545L15.2296 2.34409C13.6709 0.891818 11.6337 0 9.20777 0C5.68958 0 2.64595 2.01682 1.16504 4.95818L4.17186 7.29C4.87958 5.16273 6.86368 3.57955 9.20777 3.57955Z" fill="#EA4335"/>
</svg>
