<svg width="92" height="75" viewBox="0 0 92 75" fill="none" xmlns="http://www.w3.org/2000/svg">
<g filter="url(#filter0_di_1605_7009)">
<path d="M86.9978 47.807L87.3086 46.8124C88.0764 44.3554 87.9221 41.7028 86.8747 39.3514L86.6139 38.7659C85.8893 37.1393 84.6762 35.7787 83.1431 34.8731C82.1545 34.2891 81.0588 33.9097 79.9208 33.7573L79.4883 33.6993C78.5011 33.5671 77.5002 33.5759 76.5155 33.7254L75.2314 33.9204C74.9358 33.9653 74.6497 34.0588 74.3846 34.1971L71.8615 35.5131C71.205 35.8556 70.4194 35.3793 70.4194 34.6388V21.9194C70.4194 20.8593 69.56 20 68.5 20H51.5C50.7899 20 50.3112 19.274 50.5909 18.6213L51.5 16.5L52.2976 14.6391C52.761 13.5576 53 12.3933 53 11.2168C53 10.4095 52.8875 9.60623 52.6657 8.83005L52.5572 8.45015C52.1918 7.17117 51.5064 6.00642 50.5659 5.06586C49.8618 4.36175 49.0298 3.79847 48.1145 3.40623L47.425 3.11073C46.4791 2.70534 45.484 2.42628 44.4652 2.28074L44.1386 2.23409C43.0517 2.07882 41.9483 2.07882 40.8614 2.23409C39.6285 2.41021 38.4321 2.78394 37.3182 3.34089L37 3.5L35.7098 4.36012C34.5894 5.10709 33.6832 6.13354 33.081 7.338C32.3771 8.74579 32.1193 10.3348 32.3418 11.8929L32.3513 11.9589C32.45 12.65 32.6393 13.325 32.9143 13.9666L34 16.5L34.9091 18.6213C35.1888 19.274 34.7101 20 34 20H6C4.89543 20 4 20.8954 4 22V35.5C4 36.165 4.72132 36.5794 5.29582 36.2444L7.43011 35L8.05498 34.6994C9.6866 33.9145 11.5007 33.5873 13.3037 33.7527L13.7662 33.7951C15.2291 33.9293 16.63 34.45 17.8254 35.3038C18.9251 36.0893 19.816 37.1319 20.4203 38.3407L20.5403 38.5805C20.8458 39.1917 21.0836 39.8344 21.2493 40.4973L21.3174 40.7696C21.7663 42.5652 21.791 44.4406 21.3895 46.2474L21.2411 46.915C21.081 47.6356 20.8331 48.3339 20.5029 48.9942L20.4482 49.1036C19.8255 50.3489 18.9077 51.4231 17.7747 52.2324C16.6103 53.0641 15.2554 53.5898 13.8348 53.761L13.5359 53.7971C11.5898 54.0317 9.61831 53.6721 7.88037 52.7656L7.43011 52.5307L5.69642 51.5442C4.93974 51.1136 4 51.6601 4 52.5307V67C4 68.1046 4.89543 69 6 69H34C34.9189 69 35.5165 68.033 35.1056 67.2111L33.5 64L33.2114 63.4227C32.4263 61.8525 32.1869 60.0654 32.5312 58.3439L32.5486 58.2571C32.8429 56.7854 33.5663 55.4337 34.6276 54.3724C35.2054 53.7946 35.8726 53.3137 36.6035 52.9483L37 52.75C37.9935 52.2533 39.0606 51.9199 40.1602 51.7628L41.0955 51.6292C41.6977 51.5432 42.3053 51.5 42.9137 51.5C44.2955 51.5 45.6683 51.7228 46.9793 52.1598L47.3539 52.2846C47.7841 52.428 48.2036 52.6018 48.6091 52.8046L49.0117 53.0058C49.6663 53.3331 50.2638 53.7638 50.7813 54.2813C51.8928 55.3928 52.5854 56.8545 52.7419 58.4185L52.8127 59.1266C52.9362 60.3616 52.7971 61.6087 52.4046 62.7861L52.0744 63.7769C52.0249 63.9254 51.9649 64.0703 51.8948 64.2104L50.3944 67.2111C49.9835 68.033 50.5811 69 51.5 69H68.5C69.56 69 70.4194 68.1407 70.4194 67.0806V52.5307C70.4194 51.8137 71.2006 51.3699 71.8165 51.7371L74.3494 53.247C74.6371 53.4185 74.9551 53.5328 75.2861 53.5835L76.6325 53.7902C77.5395 53.9293 78.4617 53.9375 79.371 53.8144L79.9809 53.7319C81.0799 53.5831 82.1395 53.2221 83.1007 52.6688C84.9648 51.5959 86.3563 49.8599 86.9978 47.807Z" fill="#DDF1E9"/>
</g>
<defs>
<filter id="filter0_di_1605_7009" x="0" y="0.117188" width="91.79" height="74.8828" filterUnits="userSpaceOnUse" color-interpolation-filters="sRGB">
<feFlood flood-opacity="0" result="BackgroundImageFix"/>
<feColorMatrix in="SourceAlpha" type="matrix" values="0 0 0 0 0 0 0 0 0 0 0 0 0 0 0 0 0 0 127 0" result="hardAlpha"/>
<feOffset dy="2"/>
<feGaussianBlur stdDeviation="2"/>
<feComposite in2="hardAlpha" operator="out"/>
<feColorMatrix type="matrix" values="0 0 0 0 0 0 0 0 0 0 0 0 0 0 0 0 0 0 0.25 0"/>
<feBlend mode="normal" in2="BackgroundImageFix" result="effect1_dropShadow_1605_7009"/>
<feBlend mode="normal" in="SourceGraphic" in2="effect1_dropShadow_1605_7009" result="shape"/>
<feColorMatrix in="SourceAlpha" type="matrix" values="0 0 0 0 0 0 0 0 0 0 0 0 0 0 0 0 0 0 127 0" result="hardAlpha"/>
<feOffset dx="4" dy="6"/>
<feGaussianBlur stdDeviation="4"/>
<feComposite in2="hardAlpha" operator="arithmetic" k2="-1" k3="1"/>
<feColorMatrix type="matrix" values="0 0 0 0 1 0 0 0 0 1 0 0 0 0 1 0 0 0 0.59 0"/>
<feBlend mode="normal" in2="shape" result="effect2_innerShadow_1605_7009"/>
</filter>
</defs>
</svg>
