<svg width="497" height="51" viewBox="0 0 497 51" fill="none" xmlns="http://www.w3.org/2000/svg">
<path d="M21.96 31.24C20.8293 31.24 19.8213 30.984 18.936 30.472C18.0613 29.96 17.3733 29.2507 16.872 28.344C16.3813 27.4267 16.136 26.3867 16.136 25.224C16.136 24.0613 16.3813 23.0267 16.872 22.12C17.3627 21.2027 18.0453 20.488 18.92 19.976C19.8053 19.464 20.808 19.208 21.928 19.208C22.728 19.208 23.48 19.3627 24.184 19.672C24.8987 19.9813 25.5227 20.4133 26.056 20.968L24.968 22.04C24.616 21.6133 24.168 21.2773 23.624 21.032C23.0907 20.7867 22.5307 20.664 21.944 20.664C21.1333 20.664 20.4133 20.856 19.784 21.24C19.1653 21.6133 18.68 22.1467 18.328 22.84C17.9867 23.5227 17.816 24.3173 17.816 25.224C17.816 26.12 17.9867 26.9147 18.328 27.608C18.68 28.2907 19.1653 28.824 19.784 29.208C20.4133 29.592 21.1333 29.784 21.944 29.784C22.552 29.784 23.1067 29.6667 23.608 29.432C24.12 29.1867 24.552 28.8613 24.904 28.456L26.056 29.48C25.512 30.0453 24.8933 30.4827 24.2 30.792C23.5173 31.1013 22.7707 31.2507 21.96 31.24ZM33.9143 26.648C33.9143 25.9333 33.7436 25.3573 33.4023 24.92C33.0609 24.472 32.6129 24.248 32.0583 24.248C31.6529 24.248 31.2796 24.3653 30.9383 24.6C30.5969 24.8347 30.3249 25.1493 30.1223 25.544C29.9303 25.9387 29.8343 26.3707 29.8343 26.84V31.112H28.1703V19.336H29.8343V24.072C30.0796 23.688 30.4103 23.3893 30.8263 23.176C31.2423 22.952 31.6583 22.84 32.0743 22.84C32.7463 22.84 33.3489 22.9947 33.8823 23.304C34.4156 23.6027 34.8316 24.0293 35.1302 24.584C35.4289 25.128 35.5783 25.752 35.5783 26.456V31.112H33.9143V26.648ZM41.5378 29.816C41.9751 29.816 42.3858 29.6933 42.7698 29.448C43.1538 29.192 43.4578 28.8507 43.6818 28.424C43.9164 27.9867 44.0338 27.5067 44.0338 26.984C44.0338 26.4613 43.9164 25.9867 43.6818 25.56C43.4578 25.1227 43.1538 24.7813 42.7698 24.536C42.3858 24.28 41.9751 24.152 41.5378 24.152C40.8231 24.152 40.2418 24.4133 39.7938 24.936C39.3458 25.4587 39.1218 26.1413 39.1218 26.984C39.1218 27.8267 39.3458 28.5093 39.7938 29.032C40.2418 29.5547 40.8231 29.816 41.5378 29.816ZM37.4578 26.984C37.4578 26.1733 37.6231 25.448 37.9538 24.808C38.2951 24.168 38.7644 23.672 39.3618 23.32C39.9698 22.9573 40.6578 22.776 41.4258 22.776C41.9164 22.776 42.3858 22.8987 42.8338 23.144C43.2924 23.3787 43.6871 23.736 44.0178 24.216V22.744H45.6818V31.112L44.0178 31.128V29.736C43.6764 30.2267 43.2818 30.5947 42.8338 30.84C42.3858 31.0747 41.9164 31.192 41.4258 31.192C40.6578 31.192 39.9698 31.016 39.3618 30.664C38.7644 30.3013 38.2951 29.8 37.9538 29.16C37.6231 28.52 37.4578 27.7947 37.4578 26.984ZM53.6021 26.472C53.6021 25.768 53.4208 25.208 53.0581 24.792C52.7061 24.3653 52.2208 24.152 51.6021 24.152C51.1861 24.152 50.8075 24.2587 50.4661 24.472C50.1355 24.6747 49.8741 24.952 49.6821 25.304C49.5008 25.656 49.4101 26.0453 49.4101 26.472V31.112H47.7461V22.744H49.4101V24.152C49.6661 23.7467 50.0181 23.416 50.4661 23.16C50.9141 22.8933 51.3675 22.76 51.8261 22.76C52.4021 22.76 52.9515 22.8933 53.4741 23.16C53.9968 23.416 54.4235 23.816 54.7541 24.36C55.0955 24.904 55.2661 25.5867 55.2661 26.408V31.112H53.6021V26.472ZM61.0846 29.8C61.554 29.8 61.9753 29.672 62.3486 29.416C62.7326 29.16 63.0313 28.8133 63.2446 28.376C63.458 27.9387 63.5646 27.4693 63.5646 26.968C63.5646 26.4667 63.4526 26.0027 63.2286 25.576C63.0153 25.1493 62.7166 24.808 62.3326 24.552C61.9593 24.296 61.5433 24.168 61.0846 24.168C60.3593 24.168 59.7726 24.424 59.3246 24.936C58.8873 25.448 58.6686 26.1253 58.6686 26.968C58.6686 27.8107 58.8926 28.4933 59.3406 29.016C59.7886 29.5387 60.37 29.8 61.0846 29.8ZM57.0046 26.968C57.0046 26.1573 57.17 25.4373 57.5006 24.808C57.842 24.168 58.3113 23.672 58.9086 23.32C59.5166 22.9573 60.2046 22.776 60.9726 22.776C61.4846 22.776 61.9753 22.8987 62.4446 23.144C62.914 23.3893 63.2873 23.7467 63.5646 24.216V22.744H65.2286V30.616C65.218 31.416 65.042 32.1253 64.7006 32.744C64.37 33.3733 63.89 33.864 63.2606 34.216C62.6313 34.5787 61.8953 34.76 61.0526 34.76C60.338 34.76 59.6713 34.6053 59.0526 34.296C58.4446 33.9867 57.9433 33.5227 57.5486 32.904L58.8446 32.008C59.1646 32.456 59.4953 32.7813 59.8366 32.984C60.1886 33.1973 60.594 33.304 61.0526 33.304C61.8313 33.304 62.4446 33.064 62.8926 32.584C63.3406 32.1147 63.5646 31.5067 63.5646 30.76V29.704C63.2446 30.1733 62.8446 30.536 62.3646 30.792C61.8953 31.048 61.4313 31.176 60.9726 31.176C60.2046 31.176 59.5166 31 58.9086 30.648C58.3113 30.2853 57.842 29.784 57.5006 29.144C57.17 28.504 57.0046 27.7787 57.0046 26.968ZM73.0575 26.312C72.9828 25.6933 72.7642 25.176 72.4015 24.76C72.0388 24.3333 71.5162 24.12 70.8335 24.12C70.2148 24.12 69.6762 24.3333 69.2175 24.76C68.7695 25.176 68.4975 25.6987 68.4015 26.328L73.0575 26.312ZM66.8015 26.952C66.8015 26.1307 66.9722 25.4 67.3135 24.76C67.6548 24.12 68.1242 23.624 68.7215 23.272C69.3295 22.9093 70.0228 22.728 70.8015 22.728C71.9002 22.728 72.7055 22.9947 73.2175 23.528C73.7402 24.0613 74.0922 24.552 74.2735 25C74.5188 25.5973 74.6415 26.2587 74.6415 26.984C74.6415 27.1333 74.6362 27.2667 74.6255 27.384C74.6148 27.4907 74.6095 27.56 74.6095 27.592H68.4015C68.4975 28.232 68.7748 28.7547 69.2335 29.16C69.6922 29.5653 70.2202 29.768 70.8175 29.768C71.2975 29.768 71.6922 29.6933 72.0015 29.544C72.3215 29.3947 72.5402 29.256 72.6575 29.128C72.7748 29 72.8868 28.856 72.9935 28.696L74.3375 29.304C74.0815 29.8267 73.6548 30.2693 73.0575 30.632C72.4602 30.984 71.7082 31.16 70.8015 31.16C70.0228 31.16 69.3295 30.984 68.7215 30.632C68.1242 30.2693 67.6548 29.768 67.3135 29.128C66.9722 28.488 66.8015 27.7627 66.8015 26.952ZM80.1605 31.192C79.3925 31.192 78.7045 31.016 78.0965 30.664C77.4992 30.3013 77.0298 29.8 76.6885 29.16C76.3472 28.52 76.1765 27.7893 76.1765 26.968C76.1765 26.1467 76.3418 25.416 76.6725 24.776C77.0138 24.1253 77.4885 23.624 78.0965 23.272C78.7045 22.9093 79.3925 22.728 80.1605 22.728C80.6085 22.728 81.0778 22.8453 81.5685 23.08C82.0592 23.304 82.4698 23.6773 82.8005 24.2V19.336H84.4645V31.128H82.8005V29.736C82.4592 30.2373 82.0432 30.6053 81.5525 30.84C81.0618 31.0747 80.5978 31.192 80.1605 31.192ZM77.8405 26.984C77.8405 27.8373 78.0645 28.5307 78.5125 29.064C78.9712 29.5867 79.5632 29.848 80.2885 29.848C80.7365 29.848 81.1525 29.72 81.5365 29.464C81.9205 29.208 82.2245 28.8613 82.4485 28.424C82.6832 27.9867 82.8005 27.5067 82.8005 26.984C82.8005 26.472 82.6832 25.9973 82.4485 25.56C82.2245 25.1227 81.9205 24.776 81.5365 24.52C81.1525 24.264 80.7365 24.136 80.2885 24.136C79.5632 24.136 78.9712 24.4027 78.5125 24.936C78.0645 25.4587 77.8405 26.1413 77.8405 26.984ZM95.0558 31.112H93.5677L90.0478 22.744H91.8558L94.3038 29L96.7838 22.744H98.5918L95.0558 31.112ZM105.479 26.312C105.405 25.6933 105.186 25.176 104.823 24.76C104.461 24.3333 103.938 24.12 103.255 24.12C102.637 24.12 102.098 24.3333 101.639 24.76C101.191 25.176 100.919 25.6987 100.823 26.328L105.479 26.312ZM99.2234 26.952C99.2234 26.1307 99.394 25.4 99.7354 24.76C100.077 24.12 100.546 23.624 101.143 23.272C101.751 22.9093 102.445 22.728 103.223 22.728C104.322 22.728 105.127 22.9947 105.639 23.528C106.162 24.0613 106.514 24.552 106.695 25C106.941 25.5973 107.063 26.2587 107.063 26.984C107.063 27.1333 107.058 27.2667 107.047 27.384C107.037 27.4907 107.031 27.56 107.031 27.592H100.823C100.919 28.232 101.197 28.7547 101.655 29.16C102.114 29.5653 102.642 29.768 103.239 29.768C103.719 29.768 104.114 29.6933 104.423 29.544C104.743 29.3947 104.962 29.256 105.079 29.128C105.197 29 105.309 28.856 105.415 28.696L106.759 29.304C106.503 29.8267 106.077 30.2693 105.479 30.632C104.882 30.984 104.13 31.16 103.223 31.16C102.445 31.16 101.751 30.984 101.143 30.632C100.546 30.2693 100.077 29.768 99.7354 29.128C99.394 28.488 99.2234 27.7627 99.2234 26.952ZM110.424 24.328C110.648 23.848 111.005 23.4587 111.496 23.16C111.997 22.8507 112.531 22.696 113.096 22.696V24.216C112.595 24.216 112.141 24.3493 111.736 24.616C111.331 24.8827 111.011 25.2293 110.776 25.656C110.541 26.072 110.424 26.4987 110.424 26.936V31.112H108.76V22.744H110.424V24.328ZM115.426 28.504C115.639 28.92 115.922 29.2453 116.274 29.48C116.637 29.7147 116.978 29.832 117.298 29.832C117.757 29.832 118.119 29.736 118.386 29.544C118.663 29.352 118.802 29.0907 118.802 28.76C118.802 28.472 118.669 28.248 118.402 28.088C118.135 27.928 117.709 27.7413 117.122 27.528C116.567 27.336 116.114 27.1493 115.762 26.968C115.41 26.7867 115.106 26.536 114.85 26.216C114.605 25.896 114.482 25.496 114.482 25.016C114.482 24.3013 114.754 23.736 115.298 23.32C115.842 22.904 116.546 22.696 117.41 22.696C117.975 22.696 118.535 22.8667 119.09 23.208C119.655 23.5387 120.045 24.024 120.258 24.664L118.866 25.176C118.727 24.7707 118.519 24.4933 118.242 24.344C117.975 24.184 117.698 24.104 117.41 24.104C117.005 24.104 116.69 24.1893 116.466 24.36C116.253 24.52 116.146 24.7387 116.146 25.016C116.146 25.2933 116.279 25.5173 116.546 25.688C116.823 25.8587 117.25 26.0453 117.826 26.248C118.381 26.4507 118.829 26.6373 119.17 26.808C119.522 26.9787 119.821 27.224 120.066 27.544C120.322 27.8533 120.45 28.248 120.45 28.728C120.45 29.4853 120.162 30.0933 119.586 30.552C119.021 31 118.258 31.224 117.298 31.224C116.658 31.224 116.05 31.048 115.474 30.696C114.909 30.3333 114.466 29.848 114.146 29.24L115.426 28.504ZM124.007 22.792V31.112H122.343V22.792H124.007ZM122.231 20.072C122.231 19.7947 122.316 19.5707 122.487 19.4C122.668 19.2187 122.898 19.128 123.175 19.128C123.452 19.128 123.676 19.2187 123.847 19.4C124.028 19.5707 124.119 19.7947 124.119 20.072C124.119 20.3387 124.028 20.5627 123.847 20.744C123.676 20.9253 123.452 21.016 123.175 21.016C122.898 21.016 122.668 20.9307 122.487 20.76C122.316 20.5787 122.231 20.3493 122.231 20.072ZM130.084 29.784C130.798 29.784 131.374 29.5227 131.812 29C132.249 28.4773 132.468 27.7947 132.468 26.952C132.468 26.1093 132.249 25.4267 131.812 24.904C131.374 24.3813 130.798 24.12 130.084 24.12C129.38 24.12 128.809 24.3813 128.372 24.904C127.934 25.4267 127.716 26.1093 127.716 26.952C127.716 27.7947 127.934 28.4773 128.372 29C128.809 29.5227 129.38 29.784 130.084 29.784ZM126.052 26.952C126.052 26.1307 126.222 25.4 126.564 24.76C126.905 24.12 127.38 23.6187 127.988 23.256C128.606 22.8933 129.305 22.712 130.084 22.712C130.873 22.712 131.572 22.8933 132.18 23.256C132.798 23.6187 133.278 24.12 133.62 24.76C133.961 25.4 134.132 26.1307 134.132 26.952C134.132 27.7627 133.961 28.488 133.62 29.128C133.278 29.768 132.798 30.2693 132.18 30.632C131.572 30.9947 130.873 31.176 130.084 31.176C129.305 31.176 128.606 30.9947 127.988 30.632C127.38 30.2693 126.905 29.768 126.564 29.128C126.222 28.488 126.052 27.7627 126.052 26.952ZM141.712 26.472C141.712 25.768 141.53 25.208 141.168 24.792C140.816 24.3653 140.33 24.152 139.712 24.152C139.296 24.152 138.917 24.2587 138.576 24.472C138.245 24.6747 137.984 24.952 137.792 25.304C137.61 25.656 137.52 26.0453 137.52 26.472V31.112H135.856V22.744H137.52V24.152C137.776 23.7467 138.128 23.416 138.576 23.16C139.024 22.8933 139.477 22.76 139.936 22.76C140.512 22.76 141.061 22.8933 141.584 23.16C142.106 23.416 142.533 23.816 142.864 24.36C143.205 24.904 143.376 25.5867 143.376 26.408V31.112H141.712V26.472Z" fill="black"/>
<g filter="url(#filter0_di_1665_7016)">
<path d="M196 10H178C171.373 10 166 15.3726 166 22V29C166 35.6274 171.373 41 178 41H196C202.627 41 208 35.6274 208 29V22C208 15.3726 202.627 10 196 10Z" fill="#DDF1E9"/>
</g>
<path d="M212.196 28.9176C211.963 28.9176 211.763 28.8352 211.595 28.6705C211.428 28.5028 211.344 28.3011 211.344 28.0653C211.344 27.8324 211.428 27.6335 211.595 27.4688C211.763 27.3011 211.963 27.2173 212.196 27.2173C212.429 27.2173 212.629 27.3011 212.797 27.4688C212.964 27.6335 213.048 27.8324 213.048 28.0653C213.048 28.2216 213.009 28.3651 212.929 28.4957C212.852 28.6236 212.75 28.7259 212.622 28.8026C212.494 28.8793 212.352 28.9176 212.196 28.9176ZM212.196 24.5455C211.963 24.5455 211.763 24.4631 211.595 24.2983C211.428 24.1307 211.344 23.929 211.344 23.6932C211.344 23.4602 211.428 23.2614 211.595 23.0966C211.763 22.929 211.963 22.8452 212.196 22.8452C212.429 22.8452 212.629 22.929 212.797 23.0966C212.964 23.2614 213.048 23.4602 213.048 23.6932C213.048 23.8494 213.009 23.9929 212.929 24.1236C212.852 24.2514 212.75 24.3537 212.622 24.4304C212.494 24.5071 212.352 24.5455 212.196 24.5455ZM218.033 21.2727H219.631L222.409 28.0568H222.512L225.29 21.2727H226.888V30H225.635V23.6847H225.554L222.98 29.9872H221.941L219.367 23.6804H219.286V30H218.033V21.2727ZM230.605 30.1449C230.19 30.1449 229.815 30.0682 229.48 29.9148C229.145 29.7585 228.879 29.5327 228.683 29.2372C228.49 28.9418 228.393 28.5795 228.393 28.1506C228.393 27.7812 228.464 27.4773 228.607 27.2386C228.749 27 228.94 26.8111 229.182 26.6719C229.423 26.5327 229.693 26.4276 229.991 26.3565C230.29 26.2855 230.594 26.2315 230.903 26.1946C231.295 26.1491 231.614 26.1122 231.858 26.0838C232.102 26.0526 232.28 26.0028 232.391 25.9347C232.501 25.8665 232.557 25.7557 232.557 25.6023V25.5724C232.557 25.2003 232.452 24.9119 232.241 24.7074C232.034 24.5028 231.724 24.4006 231.312 24.4006C230.884 24.4006 230.545 24.4957 230.298 24.6861C230.054 24.8736 229.885 25.0824 229.791 25.3125L228.594 25.0398C228.736 24.642 228.943 24.321 229.216 24.0767C229.491 23.8295 229.808 23.6506 230.166 23.5398C230.524 23.4261 230.901 23.3693 231.295 23.3693C231.557 23.3693 231.834 23.4006 232.126 23.4631C232.422 23.5227 232.697 23.6335 232.953 23.7955C233.212 23.9574 233.423 24.1889 233.588 24.4901C233.753 24.7884 233.835 25.1761 233.835 25.6534V30H232.591V29.1051H232.54C232.457 29.2699 232.334 29.4318 232.169 29.5909C232.004 29.75 231.793 29.8821 231.534 29.9872C231.276 30.0923 230.966 30.1449 230.605 30.1449ZM230.882 29.1222C231.234 29.1222 231.536 29.0526 231.786 28.9134C232.038 28.7741 232.23 28.5923 232.361 28.3679C232.494 28.1406 232.561 27.8977 232.561 27.6392V26.7955C232.516 26.8409 232.428 26.8835 232.297 26.9233C232.169 26.9602 232.023 26.9929 231.858 27.0213C231.693 27.0469 231.533 27.071 231.376 27.0938C231.22 27.1136 231.089 27.1307 230.984 27.1449C230.737 27.1761 230.511 27.2287 230.307 27.3026C230.105 27.3764 229.943 27.483 229.821 27.6222C229.702 27.7585 229.642 27.9403 229.642 28.1676C229.642 28.483 229.759 28.7216 229.991 28.8835C230.224 29.0426 230.521 29.1222 230.882 29.1222ZM235.532 23.4545H236.806V30.4261C236.806 30.8636 236.727 31.233 236.568 31.5341C236.412 31.8352 236.179 32.0639 235.869 32.2202C235.562 32.3764 235.183 32.4545 234.731 32.4545C234.686 32.4545 234.643 32.4545 234.603 32.4545C234.561 32.4545 234.517 32.4531 234.471 32.4503V31.3551C234.511 31.3551 234.547 31.3551 234.578 31.3551C234.606 31.3551 234.639 31.3551 234.676 31.3551C234.977 31.3551 235.194 31.2741 235.328 31.1122C235.464 30.9531 235.532 30.7216 235.532 30.4176V23.4545ZM236.163 22.4446C235.941 22.4446 235.751 22.3707 235.592 22.223C235.436 22.0724 235.358 21.8935 235.358 21.6861C235.358 21.4759 235.436 21.2969 235.592 21.1491C235.751 20.9986 235.941 20.9233 236.163 20.9233C236.385 20.9233 236.574 20.9986 236.73 21.1491C236.889 21.2969 236.968 21.4759 236.968 21.6861C236.968 21.8935 236.889 22.0724 236.73 22.223C236.574 22.3707 236.385 22.4446 236.163 22.4446ZM241.278 30.1321C240.664 30.1321 240.129 29.9915 239.671 29.7102C239.214 29.429 238.859 29.0355 238.606 28.5298C238.353 28.0241 238.227 27.4332 238.227 26.7571C238.227 26.0781 238.353 25.4844 238.606 24.9759C238.859 24.4673 239.214 24.0724 239.671 23.7912C240.129 23.5099 240.664 23.3693 241.278 23.3693C241.891 23.3693 242.427 23.5099 242.884 23.7912C243.342 24.0724 243.697 24.4673 243.95 24.9759C244.202 25.4844 244.329 26.0781 244.329 26.7571C244.329 27.4332 244.202 28.0241 243.95 28.5298C243.697 29.0355 243.342 29.429 242.884 29.7102C242.427 29.9915 241.891 30.1321 241.278 30.1321ZM241.282 29.0625C241.68 29.0625 242.009 28.9574 242.271 28.7472C242.532 28.5369 242.725 28.2571 242.85 27.9077C242.978 27.5582 243.042 27.1733 243.042 26.7528C243.042 26.3352 242.978 25.9517 242.85 25.6023C242.725 25.25 242.532 24.9673 242.271 24.7543C242.009 24.5412 241.68 24.4347 241.282 24.4347C240.881 24.4347 240.549 24.5412 240.285 24.7543C240.023 24.9673 239.829 25.25 239.701 25.6023C239.576 25.9517 239.513 26.3352 239.513 26.7528C239.513 27.1733 239.576 27.5582 239.701 27.9077C239.829 28.2571 240.023 28.5369 240.285 28.7472C240.549 28.9574 240.881 29.0625 241.282 29.0625ZM245.751 30V23.4545H246.983V24.4943H247.051C247.17 24.142 247.38 23.8651 247.681 23.6634C247.985 23.4588 248.329 23.3565 248.713 23.3565C248.792 23.3565 248.886 23.3594 248.994 23.3651C249.105 23.3707 249.191 23.3778 249.254 23.3864V24.6051C249.203 24.5909 249.112 24.5753 248.981 24.5582C248.85 24.5384 248.72 24.5284 248.589 24.5284C248.288 24.5284 248.02 24.5923 247.784 24.7202C247.551 24.8452 247.366 25.0199 247.23 25.2443C247.093 25.4659 247.025 25.7187 247.025 26.0028V30H245.751Z" fill="black"/>
<g filter="url(#filter1_di_1665_7016)">
<path d="M305 10H287C280.373 10 275 15.3726 275 22V29C275 35.6274 280.373 41 287 41H305C311.627 41 317 35.6274 317 29V22C317 15.3726 311.627 10 305 10Z" fill="#CBCDFF"/>
</g>
<path d="M321.026 28.9176C320.793 28.9176 320.593 28.8352 320.425 28.6705C320.258 28.5028 320.174 28.3011 320.174 28.0653C320.174 27.8324 320.258 27.6335 320.425 27.4688C320.593 27.3011 320.793 27.2173 321.026 27.2173C321.259 27.2173 321.459 27.3011 321.627 27.4688C321.795 27.6335 321.878 27.8324 321.878 28.0653C321.878 28.2216 321.839 28.3651 321.759 28.4957C321.682 28.6236 321.58 28.7259 321.452 28.8026C321.324 28.8793 321.182 28.9176 321.026 28.9176ZM321.026 24.5455C320.793 24.5455 320.593 24.4631 320.425 24.2983C320.258 24.1307 320.174 23.929 320.174 23.6932C320.174 23.4602 320.258 23.2614 320.425 23.0966C320.593 22.929 320.793 22.8452 321.026 22.8452C321.259 22.8452 321.459 22.929 321.627 23.0966C321.795 23.2614 321.878 23.4602 321.878 23.6932C321.878 23.8494 321.839 23.9929 321.759 24.1236C321.682 24.2514 321.58 24.3537 321.452 24.4304C321.324 24.5071 321.182 24.5455 321.026 24.5455ZM326.863 21.2727H328.461L331.24 28.0568H331.342L334.12 21.2727H335.718V30H334.465V23.6847H334.384L331.811 29.9872H330.771L328.197 23.6804H328.116V30H326.863V21.2727ZM337.53 30V23.4545H338.805V30H337.53ZM338.174 22.4446C337.952 22.4446 337.762 22.3707 337.603 22.223C337.447 22.0724 337.368 21.8935 337.368 21.6861C337.368 21.4759 337.447 21.2969 337.603 21.1491C337.762 20.9986 337.952 20.9233 338.174 20.9233C338.395 20.9233 338.584 20.9986 338.741 21.1491C338.9 21.2969 338.979 21.4759 338.979 21.6861C338.979 21.8935 338.9 22.0724 338.741 22.223C338.584 22.3707 338.395 22.4446 338.174 22.4446ZM341.793 26.1136V30H340.519V23.4545H341.742V24.5199H341.823C341.973 24.1733 342.209 23.8949 342.53 23.6847C342.854 23.4744 343.262 23.3693 343.753 23.3693C344.199 23.3693 344.59 23.4631 344.925 23.6506C345.26 23.8352 345.52 24.1108 345.705 24.4773C345.889 24.8437 345.982 25.2969 345.982 25.8366V30H344.708V25.9901C344.708 25.5156 344.584 25.1449 344.337 24.8778C344.09 24.608 343.75 24.473 343.318 24.473C343.023 24.473 342.76 24.5369 342.53 24.6648C342.303 24.7926 342.122 24.9801 341.989 25.2273C341.858 25.4716 341.793 25.767 341.793 26.1136ZM350.448 30.1321C349.834 30.1321 349.298 29.9915 348.841 29.7102C348.384 29.429 348.029 29.0355 347.776 28.5298C347.523 28.0241 347.396 27.4332 347.396 26.7571C347.396 26.0781 347.523 25.4844 347.776 24.9759C348.029 24.4673 348.384 24.0724 348.841 23.7912C349.298 23.5099 349.834 23.3693 350.448 23.3693C351.061 23.3693 351.597 23.5099 352.054 23.7912C352.512 24.0724 352.867 24.4673 353.119 24.9759C353.372 25.4844 353.499 26.0781 353.499 26.7571C353.499 27.4332 353.372 28.0241 353.119 28.5298C352.867 29.0355 352.512 29.429 352.054 29.7102C351.597 29.9915 351.061 30.1321 350.448 30.1321ZM350.452 29.0625C350.85 29.0625 351.179 28.9574 351.441 28.7472C351.702 28.5369 351.895 28.2571 352.02 27.9077C352.148 27.5582 352.212 27.1733 352.212 26.7528C352.212 26.3352 352.148 25.9517 352.02 25.6023C351.895 25.25 351.702 24.9673 351.441 24.7543C351.179 24.5412 350.85 24.4347 350.452 24.4347C350.051 24.4347 349.719 24.5412 349.455 24.7543C349.193 24.9673 348.999 25.25 348.871 25.6023C348.746 25.9517 348.683 26.3352 348.683 26.7528C348.683 27.1733 348.746 27.5582 348.871 27.9077C348.999 28.2571 349.193 28.5369 349.455 28.7472C349.719 28.9574 350.051 29.0625 350.452 29.0625ZM354.921 30V23.4545H356.153V24.4943H356.221C356.34 24.142 356.55 23.8651 356.851 23.6634C357.155 23.4588 357.499 23.3565 357.883 23.3565C357.962 23.3565 358.056 23.3594 358.164 23.3651C358.275 23.3707 358.361 23.3778 358.424 23.3864V24.6051C358.373 24.5909 358.282 24.5753 358.151 24.5582C358.02 24.5384 357.89 24.5284 357.759 24.5284C357.458 24.5284 357.189 24.5923 356.954 24.7202C356.721 24.8452 356.536 25.0199 356.4 25.2443C356.263 25.4659 356.195 25.7187 356.195 26.0028V30H354.921Z" fill="black"/>
<g filter="url(#filter2_di_1665_7016)">
<path d="M414 10H396C389.373 10 384 15.3726 384 22V29C384 35.6274 389.373 41 396 41H414C420.627 41 426 35.6274 426 29V22C426 15.3726 420.627 10 414 10Z" fill="#FFF4CB"/>
</g>
<path d="M429.973 28.9176C429.74 28.9176 429.54 28.8352 429.373 28.6705C429.205 28.5028 429.121 28.3011 429.121 28.0653C429.121 27.8324 429.205 27.6335 429.373 27.4688C429.54 27.3011 429.74 27.2173 429.973 27.2173C430.206 27.2173 430.407 27.3011 430.574 27.4688C430.742 27.6335 430.826 27.8324 430.826 28.0653C430.826 28.2216 430.786 28.3651 430.706 28.4957C430.63 28.6236 430.527 28.7259 430.4 28.8026C430.272 28.8793 430.13 28.9176 429.973 28.9176ZM429.973 24.5455C429.74 24.5455 429.54 24.4631 429.373 24.2983C429.205 24.1307 429.121 23.929 429.121 23.6932C429.121 23.4602 429.205 23.2614 429.373 23.0966C429.54 22.929 429.74 22.8452 429.973 22.8452C430.206 22.8452 430.407 22.929 430.574 23.0966C430.742 23.2614 430.826 23.4602 430.826 23.6932C430.826 23.8494 430.786 23.9929 430.706 24.1236C430.63 24.2514 430.527 24.3537 430.4 24.4304C430.272 24.5071 430.13 24.5455 429.973 24.5455ZM435.81 30V21.2727H438.921C439.6 21.2727 440.163 21.3963 440.609 21.6435C441.055 21.8906 441.388 22.2287 441.61 22.6577C441.832 23.0838 441.942 23.5639 441.942 24.098C441.942 24.6349 441.83 25.1179 441.606 25.5469C441.384 25.973 441.049 26.3111 440.6 26.5611C440.154 26.8082 439.593 26.9318 438.917 26.9318H436.778V25.8153H438.798C439.227 25.8153 439.575 25.7415 439.842 25.5938C440.109 25.4432 440.305 25.2386 440.43 24.9801C440.555 24.7216 440.617 24.4276 440.617 24.098C440.617 23.7685 440.555 23.4759 440.43 23.2202C440.305 22.9645 440.107 22.7642 439.837 22.6193C439.57 22.4744 439.218 22.402 438.781 22.402H437.127V30H435.81ZM445.23 30.1449C444.815 30.1449 444.44 30.0682 444.105 29.9148C443.77 29.7585 443.504 29.5327 443.308 29.2372C443.115 28.9418 443.018 28.5795 443.018 28.1506C443.018 27.7812 443.089 27.4773 443.232 27.2386C443.374 27 443.565 26.8111 443.807 26.6719C444.048 26.5327 444.318 26.4276 444.616 26.3565C444.915 26.2855 445.219 26.2315 445.528 26.1946C445.92 26.1491 446.239 26.1122 446.483 26.0838C446.727 26.0526 446.905 26.0028 447.016 25.9347C447.126 25.8665 447.182 25.7557 447.182 25.6023V25.5724C447.182 25.2003 447.077 24.9119 446.866 24.7074C446.659 24.5028 446.349 24.4006 445.938 24.4006C445.509 24.4006 445.17 24.4957 444.923 24.6861C444.679 24.8736 444.51 25.0824 444.416 25.3125L443.219 25.0398C443.361 24.642 443.568 24.321 443.841 24.0767C444.116 23.8295 444.433 23.6506 444.791 23.5398C445.149 23.4261 445.526 23.3693 445.92 23.3693C446.182 23.3693 446.459 23.4006 446.751 23.4631C447.047 23.5227 447.322 23.6335 447.578 23.7955C447.837 23.9574 448.048 24.1889 448.213 24.4901C448.378 24.7884 448.46 25.1761 448.46 25.6534V30H447.216V29.1051H447.165C447.082 29.2699 446.959 29.4318 446.794 29.5909C446.629 29.75 446.418 29.8821 446.159 29.9872C445.901 30.0923 445.591 30.1449 445.23 30.1449ZM445.507 29.1222C445.859 29.1222 446.161 29.0526 446.411 28.9134C446.663 28.7741 446.855 28.5923 446.986 28.3679C447.119 28.1406 447.186 27.8977 447.186 27.6392V26.7955C447.141 26.8409 447.053 26.8835 446.922 26.9233C446.794 26.9602 446.648 26.9929 446.483 27.0213C446.318 27.0469 446.158 27.071 446.001 27.0938C445.845 27.1136 445.714 27.1307 445.609 27.1449C445.362 27.1761 445.136 27.2287 444.932 27.3026C444.73 27.3764 444.568 27.483 444.446 27.6222C444.327 27.7585 444.267 27.9403 444.267 28.1676C444.267 28.483 444.384 28.7216 444.616 28.8835C444.849 29.0426 445.146 29.1222 445.507 29.1222ZM453.213 23.4545V24.4773H449.637V23.4545H453.213ZM450.596 21.8864H451.87V28.0781C451.87 28.3253 451.907 28.5114 451.981 28.6364C452.055 28.7585 452.15 28.8423 452.267 28.8878C452.386 28.9304 452.515 28.9517 452.654 28.9517C452.757 28.9517 452.846 28.9446 452.923 28.9304C453 28.9162 453.059 28.9048 453.102 28.8963L453.332 29.9489C453.258 29.9773 453.153 30.0057 453.017 30.0341C452.88 30.0653 452.71 30.0824 452.505 30.0852C452.17 30.0909 451.858 30.0312 451.568 29.9062C451.278 29.7812 451.044 29.5881 450.865 29.3267C450.686 29.0653 450.596 28.7372 450.596 28.3423V21.8864ZM457.309 30.1321C456.675 30.1321 456.13 29.9886 455.673 29.7017C455.218 29.4119 454.869 29.0128 454.624 28.5043C454.38 27.9957 454.258 27.4134 454.258 26.7571C454.258 26.0923 454.383 25.5057 454.633 24.9972C454.883 24.4858 455.235 24.0866 455.69 23.7997C456.144 23.5128 456.68 23.3693 457.296 23.3693C457.793 23.3693 458.237 23.4616 458.626 23.6463C459.015 23.8281 459.329 24.0838 459.567 24.4134C459.809 24.7429 459.952 25.1278 459.998 25.5682H458.758C458.69 25.2614 458.533 24.9972 458.289 24.7756C458.048 24.554 457.724 24.4432 457.317 24.4432C456.962 24.4432 456.651 24.5369 456.384 24.7244C456.12 24.9091 455.914 25.1733 455.766 25.517C455.619 25.858 455.545 26.2614 455.545 26.7273C455.545 27.2045 455.617 27.6165 455.762 27.9631C455.907 28.3097 456.112 28.5781 456.376 28.7685C456.643 28.9588 456.957 29.054 457.317 29.054C457.559 29.054 457.778 29.0099 457.974 28.9219C458.173 28.831 458.339 28.7017 458.472 28.5341C458.609 28.3665 458.704 28.1648 458.758 27.929H459.998C459.952 28.3523 459.815 28.7301 459.585 29.0625C459.354 29.3949 459.046 29.6562 458.66 29.8466C458.276 30.0369 457.826 30.1321 457.309 30.1321ZM462.635 26.1136V30H461.36V21.2727H462.618V24.5199H462.699C462.852 24.1676 463.086 23.8878 463.402 23.6804C463.717 23.473 464.129 23.3693 464.637 23.3693C465.086 23.3693 465.478 23.4616 465.814 23.6463C466.152 23.831 466.413 24.1065 466.598 24.473C466.785 24.8366 466.879 25.2912 466.879 25.8366V30H465.605V25.9901C465.605 25.5099 465.481 25.1378 465.234 24.8736C464.987 24.6065 464.643 24.473 464.203 24.473C463.902 24.473 463.632 24.5369 463.393 24.6648C463.157 24.7926 462.971 24.9801 462.835 25.2273C462.701 25.4716 462.635 25.767 462.635 26.1136Z" fill="black"/>
<defs>
<filter id="filter0_di_1665_7016" x="162" y="10" width="50" height="39" filterUnits="userSpaceOnUse" color-interpolation-filters="sRGB">
<feFlood flood-opacity="0" result="BackgroundImageFix"/>
<feColorMatrix in="SourceAlpha" type="matrix" values="0 0 0 0 0 0 0 0 0 0 0 0 0 0 0 0 0 0 127 0" result="hardAlpha"/>
<feOffset dy="4"/>
<feGaussianBlur stdDeviation="2"/>
<feComposite in2="hardAlpha" operator="out"/>
<feColorMatrix type="matrix" values="0 0 0 0 0 0 0 0 0 0 0 0 0 0 0 0 0 0 0.25 0"/>
<feBlend mode="normal" in2="BackgroundImageFix" result="effect1_dropShadow_1665_7016"/>
<feBlend mode="normal" in="SourceGraphic" in2="effect1_dropShadow_1665_7016" result="shape"/>
<feColorMatrix in="SourceAlpha" type="matrix" values="0 0 0 0 0 0 0 0 0 0 0 0 0 0 0 0 0 0 127 0" result="hardAlpha"/>
<feOffset dx="4" dy="6"/>
<feGaussianBlur stdDeviation="4"/>
<feComposite in2="hardAlpha" operator="arithmetic" k2="-1" k3="1"/>
<feColorMatrix type="matrix" values="0 0 0 0 1 0 0 0 0 1 0 0 0 0 1 0 0 0 0.59 0"/>
<feBlend mode="normal" in2="shape" result="effect2_innerShadow_1665_7016"/>
</filter>
<filter id="filter1_di_1665_7016" x="271" y="10" width="50" height="39" filterUnits="userSpaceOnUse" color-interpolation-filters="sRGB">
<feFlood flood-opacity="0" result="BackgroundImageFix"/>
<feColorMatrix in="SourceAlpha" type="matrix" values="0 0 0 0 0 0 0 0 0 0 0 0 0 0 0 0 0 0 127 0" result="hardAlpha"/>
<feOffset dy="4"/>
<feGaussianBlur stdDeviation="2"/>
<feComposite in2="hardAlpha" operator="out"/>
<feColorMatrix type="matrix" values="0 0 0 0 0 0 0 0 0 0 0 0 0 0 0 0 0 0 0.25 0"/>
<feBlend mode="normal" in2="BackgroundImageFix" result="effect1_dropShadow_1665_7016"/>
<feBlend mode="normal" in="SourceGraphic" in2="effect1_dropShadow_1665_7016" result="shape"/>
<feColorMatrix in="SourceAlpha" type="matrix" values="0 0 0 0 0 0 0 0 0 0 0 0 0 0 0 0 0 0 127 0" result="hardAlpha"/>
<feOffset dx="4" dy="6"/>
<feGaussianBlur stdDeviation="4"/>
<feComposite in2="hardAlpha" operator="arithmetic" k2="-1" k3="1"/>
<feColorMatrix type="matrix" values="0 0 0 0 1 0 0 0 0 1 0 0 0 0 1 0 0 0 0.59 0"/>
<feBlend mode="normal" in2="shape" result="effect2_innerShadow_1665_7016"/>
</filter>
<filter id="filter2_di_1665_7016" x="380" y="10" width="50" height="39" filterUnits="userSpaceOnUse" color-interpolation-filters="sRGB">
<feFlood flood-opacity="0" result="BackgroundImageFix"/>
<feColorMatrix in="SourceAlpha" type="matrix" values="0 0 0 0 0 0 0 0 0 0 0 0 0 0 0 0 0 0 127 0" result="hardAlpha"/>
<feOffset dy="4"/>
<feGaussianBlur stdDeviation="2"/>
<feComposite in2="hardAlpha" operator="out"/>
<feColorMatrix type="matrix" values="0 0 0 0 0 0 0 0 0 0 0 0 0 0 0 0 0 0 0.25 0"/>
<feBlend mode="normal" in2="BackgroundImageFix" result="effect1_dropShadow_1665_7016"/>
<feBlend mode="normal" in="SourceGraphic" in2="effect1_dropShadow_1665_7016" result="shape"/>
<feColorMatrix in="SourceAlpha" type="matrix" values="0 0 0 0 0 0 0 0 0 0 0 0 0 0 0 0 0 0 127 0" result="hardAlpha"/>
<feOffset dx="4" dy="6"/>
<feGaussianBlur stdDeviation="4"/>
<feComposite in2="hardAlpha" operator="arithmetic" k2="-1" k3="1"/>
<feColorMatrix type="matrix" values="0 0 0 0 1 0 0 0 0 1 0 0 0 0 1 0 0 0 0.59 0"/>
<feBlend mode="normal" in2="shape" result="effect2_innerShadow_1665_7016"/>
</filter>
</defs>
</svg>
