<svg width="600" height="229" viewBox="0 0 600 229" fill="none" xmlns="http://www.w3.org/2000/svg">
<g filter="url(#filter0_di_714_7654)">
<path d="M394 172H346.976C346.437 172 346 172.437 346 172.976V186.639C346 187.543 346.944 188.136 347.758 187.744L349.377 186.964L349.454 186.923C351.031 186.088 352.723 185.491 354.476 185.154L355.209 185.012L355.659 184.976C357.943 184.789 360.217 185.433 362.065 186.789C362.811 187.336 363.474 187.99 364.032 188.729L364.062 188.769C365.1 190.144 365.76 191.768 365.975 193.478L366.059 194.146C366.193 195.209 366.188 196.285 366.045 197.347L365.905 198.386C365.734 199.651 365.317 200.87 364.676 201.974L364.566 202.162C363.669 203.706 362.334 204.949 360.731 205.734C359.719 206.229 358.624 206.53 357.502 206.621L356.767 206.681C355.735 206.765 354.696 206.687 353.688 206.45C352.864 206.256 352.068 205.956 351.319 205.56L349.377 204.531L347.69 203.556C346.939 203.122 346 203.663 346 204.531V220.145C346 220.617 346.383 221 346.855 221H394C403.941 221 412 212.941 412 203V190C412 180.059 403.941 172 394 172Z" fill="#FFF4CB"/>
</g>
<path d="M381.803 192.273V201H380.482V193.594H380.431L378.343 194.957V193.696L380.52 192.273H381.803ZM384.516 201.081C384.283 201.081 384.083 200.999 383.915 200.834C383.748 200.666 383.664 200.464 383.664 200.229C383.664 199.996 383.748 199.797 383.915 199.632C384.083 199.464 384.283 199.381 384.516 199.381C384.749 199.381 384.95 199.464 385.117 199.632C385.285 199.797 385.369 199.996 385.369 200.229C385.369 200.385 385.329 200.528 385.249 200.659C385.173 200.787 385.07 200.889 384.942 200.966C384.815 201.043 384.673 201.081 384.516 201.081ZM389.315 192.273V201H387.994V193.594H387.942L385.854 194.957V193.696L388.032 192.273H389.315ZM392.028 201.081C391.795 201.081 391.595 200.999 391.427 200.834C391.26 200.666 391.176 200.464 391.176 200.229C391.176 199.996 391.26 199.797 391.427 199.632C391.595 199.464 391.795 199.381 392.028 199.381C392.261 199.381 392.461 199.464 392.629 199.632C392.797 199.797 392.88 199.996 392.88 200.229C392.88 200.385 392.841 200.528 392.761 200.659C392.684 200.787 392.582 200.889 392.454 200.966C392.326 201.043 392.184 201.081 392.028 201.081ZM396.826 192.273V201H395.505V193.594H395.454L393.366 194.957V193.696L395.544 192.273H396.826Z" fill="black"/>
<g filter="url(#filter1_di_714_7654)">
<path d="M461 109H413.976C413.437 109 413 109.437 413 109.976V123.639C413 124.543 413.944 125.136 414.758 124.744L416.377 123.964L416.454 123.923C418.031 123.088 419.723 122.491 421.476 122.154L422.209 122.012L422.659 121.976C424.943 121.789 427.217 122.433 429.065 123.789C429.811 124.336 430.474 124.99 431.032 125.729L431.062 125.769C432.1 127.144 432.76 128.768 432.975 130.478L433.059 131.146C433.193 132.209 433.188 133.285 433.045 134.347L432.905 135.386C432.734 136.651 432.317 137.87 431.676 138.974L431.566 139.162C430.669 140.706 429.334 141.949 427.731 142.734C426.719 143.229 425.624 143.53 424.502 143.621L423.767 143.681C422.735 143.765 421.696 143.687 420.688 143.45C419.864 143.256 419.068 142.956 418.319 142.56L416.377 141.531L414.69 140.556C413.939 140.122 413 140.663 413 141.531V157.145C413 157.617 413.383 158 413.855 158H461C470.941 158 479 149.941 479 140V127C479 117.059 470.941 109 461 109Z" fill="#FFF4CB"/>
</g>
<path d="M442.773 138V137.045L445.726 133.986C446.042 133.653 446.301 133.362 446.506 133.112C446.713 132.859 446.868 132.619 446.971 132.392C447.073 132.165 447.124 131.923 447.124 131.668C447.124 131.378 447.056 131.128 446.919 130.918C446.783 130.705 446.597 130.541 446.361 130.428C446.125 130.311 445.86 130.253 445.564 130.253C445.252 130.253 444.979 130.317 444.746 130.445C444.513 130.572 444.334 130.753 444.209 130.986C444.084 131.219 444.022 131.491 444.022 131.804H442.765C442.765 131.273 442.887 130.808 443.131 130.411C443.375 130.013 443.711 129.705 444.137 129.486C444.563 129.264 445.047 129.153 445.59 129.153C446.138 129.153 446.621 129.263 447.039 129.482C447.459 129.697 447.787 129.993 448.023 130.368C448.259 130.74 448.377 131.161 448.377 131.629C448.377 131.953 448.316 132.27 448.194 132.58C448.074 132.889 447.865 133.234 447.567 133.615C447.269 133.993 446.854 134.452 446.323 134.991L444.588 136.807V136.871H448.517V138H442.773ZM450.989 138.081C450.756 138.081 450.556 137.999 450.388 137.834C450.221 137.666 450.137 137.464 450.137 137.229C450.137 136.996 450.221 136.797 450.388 136.632C450.556 136.464 450.756 136.381 450.989 136.381C451.222 136.381 451.422 136.464 451.59 136.632C451.757 136.797 451.841 136.996 451.841 137.229C451.841 137.385 451.801 137.528 451.722 137.659C451.645 137.787 451.543 137.889 451.415 137.966C451.287 138.043 451.145 138.081 450.989 138.081ZM453.531 138V137.045L456.484 133.986C456.799 133.653 457.059 133.362 457.264 133.112C457.471 132.859 457.626 132.619 457.728 132.392C457.831 132.165 457.882 131.923 457.882 131.668C457.882 131.378 457.814 131.128 457.677 130.918C457.541 130.705 457.355 130.541 457.119 130.428C456.883 130.311 456.618 130.253 456.322 130.253C456.01 130.253 455.737 130.317 455.504 130.445C455.271 130.572 455.092 130.753 454.967 130.986C454.842 131.219 454.779 131.491 454.779 131.804H453.522C453.522 131.273 453.645 130.808 453.889 130.411C454.133 130.013 454.468 129.705 454.895 129.486C455.321 129.264 455.805 129.153 456.348 129.153C456.896 129.153 457.379 129.263 457.797 129.482C458.217 129.697 458.545 129.993 458.781 130.368C459.017 130.74 459.135 131.161 459.135 131.629C459.135 131.953 459.074 132.27 458.951 132.58C458.832 132.889 458.623 133.234 458.325 133.615C458.027 133.993 457.612 134.452 457.081 134.991L455.346 136.807V136.871H459.275V138H453.531ZM461.747 138.081C461.514 138.081 461.314 137.999 461.146 137.834C460.978 137.666 460.895 137.464 460.895 137.229C460.895 136.996 460.978 136.797 461.146 136.632C461.314 136.464 461.514 136.381 461.747 136.381C461.98 136.381 462.18 136.464 462.348 136.632C462.515 136.797 462.599 136.996 462.599 137.229C462.599 137.385 462.559 137.528 462.48 137.659C462.403 137.787 462.301 137.889 462.173 137.966C462.045 138.043 461.903 138.081 461.747 138.081ZM466.545 129.273V138H465.224V130.594H465.173L463.085 131.957V130.696L465.262 129.273H466.545Z" fill="black"/>
<g filter="url(#filter2_di_714_7654)">
<path d="M346.043 172H279.976C279.437 172 279 172.437 279 172.976V186.639C279 187.545 279.944 188.143 280.764 187.754L282.43 186.964L282.567 186.893C284.13 186.077 285.805 185.496 287.537 185.167L288.355 185.012L288.844 184.973C291.145 184.788 293.436 185.429 295.308 186.781C296.073 187.334 296.758 188.001 297.333 188.75C298.392 190.131 299.073 191.777 299.294 193.503L299.375 194.141C299.512 195.207 299.507 196.287 299.361 197.352L299.223 198.363C299.047 199.643 298.619 200.875 297.963 201.987L297.878 202.131C296.955 203.695 295.589 204.951 293.952 205.74C292.932 206.231 291.83 206.529 290.702 206.62L289.933 206.681C288.887 206.765 287.835 206.687 286.812 206.45C285.973 206.256 285.162 205.956 284.398 205.557L282.43 204.531L280.696 203.544C279.94 203.114 279 203.66 279 204.531V220.145C279 220.617 279.383 221 279.855 221H346.043C345.699 221 345.419 220.721 345.419 220.376V204.531C345.419 203.814 346.201 203.37 346.816 203.737L349.615 205.405C349.728 205.473 349.846 205.532 349.967 205.583L350.603 205.848C352.121 206.482 353.75 206.808 355.396 206.808H356.645L358.082 206.621C360.354 206.324 362.411 205.126 363.79 203.295C364.627 202.184 365.179 200.885 365.399 199.511L365.659 197.879C365.885 196.468 365.878 195.028 365.64 193.619L365.468 192.604C365.204 191.04 364.539 189.569 363.539 188.337C362.302 186.811 360.609 185.721 358.708 185.225L358.365 185.135C357.227 184.839 356.046 184.739 354.875 184.841L354.349 184.887C353.388 184.97 352.439 185.158 351.518 185.446L350.025 185.913C349.865 185.963 349.71 186.027 349.562 186.105L346.861 187.513C346.205 187.856 345.419 187.379 345.419 186.639V172.624C345.419 172.279 345.699 172 346.043 172Z" fill="#CBCDFF"/>
</g>
<path d="M316.397 192.273V201H315.076V193.594H315.025L312.936 194.957V193.696L315.114 192.273H316.397ZM319.11 201.081C318.877 201.081 318.677 200.999 318.509 200.834C318.342 200.666 318.258 200.464 318.258 200.229C318.258 199.996 318.342 199.797 318.509 199.632C318.677 199.464 318.877 199.381 319.11 199.381C319.343 199.381 319.543 199.464 319.711 199.632C319.879 199.797 319.962 199.996 319.962 200.229C319.962 200.385 319.923 200.528 319.843 200.659C319.766 200.787 319.664 200.889 319.536 200.966C319.408 201.043 319.266 201.081 319.11 201.081ZM323.908 192.273V201H322.587V193.594H322.536L320.448 194.957V193.696L322.626 192.273H323.908ZM326.622 201.081C326.389 201.081 326.189 200.999 326.021 200.834C325.853 200.666 325.77 200.464 325.77 200.229C325.77 199.996 325.853 199.797 326.021 199.632C326.189 199.464 326.389 199.381 326.622 199.381C326.855 199.381 327.055 199.464 327.223 199.632C327.39 199.797 327.474 199.996 327.474 200.229C327.474 200.385 327.434 200.528 327.355 200.659C327.278 200.787 327.176 200.889 327.048 200.966C326.92 201.043 326.778 201.081 326.622 201.081ZM331.886 201.145C331.212 201.142 330.637 200.964 330.16 200.612C329.683 200.26 329.317 199.747 329.065 199.074C328.812 198.401 328.685 197.589 328.685 196.641C328.685 195.695 328.812 194.886 329.065 194.216C329.32 193.545 329.687 193.034 330.164 192.682C330.644 192.33 331.218 192.153 331.886 192.153C332.553 192.153 333.126 192.331 333.603 192.686C334.08 193.038 334.445 193.55 334.698 194.22C334.954 194.888 335.082 195.695 335.082 196.641C335.082 197.592 334.955 198.405 334.702 199.078C334.45 199.749 334.085 200.261 333.607 200.616C333.13 200.969 332.556 201.145 331.886 201.145ZM331.886 200.007C332.477 200.007 332.938 199.719 333.271 199.142C333.606 198.565 333.773 197.732 333.773 196.641C333.773 195.916 333.697 195.304 333.543 194.804C333.393 194.301 333.175 193.92 332.891 193.662C332.61 193.401 332.275 193.27 331.886 193.27C331.298 193.27 330.836 193.56 330.501 194.139C330.165 194.719 329.996 195.553 329.994 196.641C329.994 197.368 330.069 197.983 330.219 198.486C330.373 198.986 330.59 199.365 330.871 199.624C331.153 199.879 331.491 200.007 331.886 200.007Z" fill="black"/>
<g filter="url(#filter3_di_714_7654)">
<path d="M413.043 109H346.976C346.437 109 346 109.437 346 109.976V123.639C346 124.545 346.944 125.143 347.764 124.754L349.43 123.964L349.567 123.893C351.13 123.077 352.805 122.496 354.537 122.167L355.355 122.012L355.844 121.973C358.145 121.788 360.436 122.429 362.308 123.781C363.073 124.334 363.758 125.001 364.333 125.75C365.392 127.131 366.073 128.777 366.294 130.503L366.375 131.141C366.512 132.207 366.507 133.287 366.361 134.352L366.223 135.363C366.047 136.643 365.619 137.875 364.963 138.987L364.878 139.131C363.955 140.695 362.589 141.951 360.952 142.74C359.932 143.231 358.83 143.529 357.702 143.62L356.933 143.681C355.887 143.765 354.835 143.687 353.812 143.45C352.973 143.256 352.162 142.956 351.398 142.557L349.43 141.531L347.696 140.544C346.94 140.114 346 140.66 346 141.531V157.145C346 157.617 346.383 158 346.855 158H413.043C412.699 158 412.419 157.721 412.419 157.376V141.531C412.419 140.814 413.201 140.37 413.816 140.737L416.615 142.405C416.728 142.473 416.846 142.532 416.967 142.583L417.603 142.848C419.121 143.482 420.75 143.808 422.396 143.808H423.645L425.082 143.621C427.354 143.324 429.411 142.126 430.79 140.295C431.627 139.184 432.179 137.885 432.399 136.511L432.659 134.88C432.885 133.468 432.878 132.028 432.64 130.619L432.468 129.604C432.204 128.04 431.539 126.569 430.539 125.337C429.302 123.811 427.609 122.721 425.708 122.225L425.365 122.135C424.227 121.839 423.046 121.739 421.875 121.841L421.349 121.887C420.388 121.97 419.439 122.158 418.518 122.446L417.025 122.913C416.865 122.963 416.71 123.027 416.562 123.105L413.861 124.513C413.205 124.856 412.419 124.379 412.419 123.639V109.624C412.419 109.279 412.699 109 413.043 109Z" fill="#CBCDFF"/>
</g>
<path d="M377.367 138V137.045L380.32 133.986C380.635 133.653 380.895 133.362 381.1 133.112C381.307 132.859 381.462 132.619 381.564 132.392C381.667 132.165 381.718 131.923 381.718 131.668C381.718 131.378 381.65 131.128 381.513 130.918C381.377 130.705 381.191 130.541 380.955 130.428C380.719 130.311 380.453 130.253 380.158 130.253C379.846 130.253 379.573 130.317 379.34 130.445C379.107 130.572 378.928 130.753 378.803 130.986C378.678 131.219 378.615 131.491 378.615 131.804H377.358C377.358 131.273 377.48 130.808 377.725 130.411C377.969 130.013 378.304 129.705 378.73 129.486C379.157 129.264 379.641 129.153 380.184 129.153C380.732 129.153 381.215 129.263 381.632 129.482C382.053 129.697 382.381 129.993 382.617 130.368C382.853 130.74 382.971 131.161 382.971 131.629C382.971 131.953 382.909 132.27 382.787 132.58C382.668 132.889 382.459 133.234 382.161 133.615C381.863 133.993 381.448 134.452 380.917 134.991L379.182 136.807V136.871H383.111V138H377.367ZM385.583 138.081C385.35 138.081 385.15 137.999 384.982 137.834C384.814 137.666 384.73 137.464 384.73 137.229C384.73 136.996 384.814 136.797 384.982 136.632C385.15 136.464 385.35 136.381 385.583 136.381C385.816 136.381 386.016 136.464 386.184 136.632C386.351 136.797 386.435 136.996 386.435 137.229C386.435 137.385 386.395 137.528 386.316 137.659C386.239 137.787 386.137 137.889 386.009 137.966C385.881 138.043 385.739 138.081 385.583 138.081ZM388.125 138V137.045L391.078 133.986C391.393 133.653 391.653 133.362 391.858 133.112C392.065 132.859 392.22 132.619 392.322 132.392C392.424 132.165 392.475 131.923 392.475 131.668C392.475 131.378 392.407 131.128 392.271 130.918C392.135 130.705 391.949 130.541 391.713 130.428C391.477 130.311 391.211 130.253 390.916 130.253C390.603 130.253 390.331 130.317 390.098 130.445C389.865 130.572 389.686 130.753 389.561 130.986C389.436 131.219 389.373 131.491 389.373 131.804H388.116C388.116 131.273 388.238 130.808 388.483 130.411C388.727 130.013 389.062 129.705 389.488 129.486C389.914 129.264 390.399 129.153 390.941 129.153C391.49 129.153 391.973 129.263 392.39 129.482C392.811 129.697 393.139 129.993 393.375 130.368C393.61 130.74 393.728 131.161 393.728 131.629C393.728 131.953 393.667 132.27 393.545 132.58C393.426 132.889 393.217 133.234 392.919 133.615C392.62 133.993 392.206 134.452 391.674 134.991L389.94 136.807V136.871H393.869V138H388.125ZM396.341 138.081C396.108 138.081 395.907 137.999 395.74 137.834C395.572 137.666 395.488 137.464 395.488 137.229C395.488 136.996 395.572 136.797 395.74 136.632C395.907 136.464 396.108 136.381 396.341 136.381C396.574 136.381 396.774 136.464 396.941 136.632C397.109 136.797 397.193 136.996 397.193 137.229C397.193 137.385 397.153 137.528 397.074 137.659C396.997 137.787 396.895 137.889 396.767 137.966C396.639 138.043 396.497 138.081 396.341 138.081ZM401.604 138.145C400.931 138.142 400.356 137.964 399.879 137.612C399.401 137.26 399.036 136.747 398.783 136.074C398.531 135.401 398.404 134.589 398.404 133.641C398.404 132.695 398.531 131.886 398.783 131.216C399.039 130.545 399.406 130.034 399.883 129.682C400.363 129.33 400.937 129.153 401.604 129.153C402.272 129.153 402.844 129.331 403.322 129.686C403.799 130.038 404.164 130.55 404.417 131.22C404.673 131.888 404.8 132.695 404.8 133.641C404.8 134.592 404.674 135.405 404.421 136.078C404.168 136.749 403.803 137.261 403.326 137.616C402.849 137.969 402.275 138.145 401.604 138.145ZM401.604 137.007C402.195 137.007 402.657 136.719 402.989 136.142C403.325 135.565 403.492 134.732 403.492 133.641C403.492 132.916 403.415 132.304 403.262 131.804C403.112 131.301 402.894 130.92 402.61 130.662C402.329 130.401 401.994 130.27 401.604 130.27C401.016 130.27 400.555 130.56 400.219 131.139C399.884 131.719 399.715 132.553 399.712 133.641C399.712 134.368 399.788 134.983 399.938 135.486C400.092 135.986 400.309 136.365 400.59 136.624C400.871 136.879 401.21 137.007 401.604 137.007Z" fill="black"/>
<g filter="url(#filter4_di_714_7654)">
<path d="M280.043 172H231C221.059 172 213 180.059 213 190V203C213 212.941 221.059 221 231 221H280.043C279.699 221 279.419 220.721 279.419 220.376V204.531C279.419 203.814 280.201 203.37 280.816 203.737L283.615 205.405C283.728 205.473 283.846 205.532 283.967 205.583L284.603 205.848C286.121 206.482 287.75 206.808 289.396 206.808H290.645L292.082 206.621C294.354 206.324 296.411 205.126 297.79 203.295C298.627 202.184 299.179 200.885 299.399 199.511L299.659 197.879C299.885 196.468 299.878 195.028 299.64 193.619L299.468 192.604C299.204 191.04 298.539 189.569 297.539 188.337C296.302 186.811 294.609 185.721 292.708 185.225L292.365 185.135C291.227 184.839 290.046 184.739 288.875 184.841L288.349 184.887C287.388 184.97 286.439 185.158 285.518 185.446L284.025 185.913C283.865 185.963 283.71 186.027 283.562 186.105L280.861 187.513C280.205 187.856 279.419 187.379 279.419 186.639V172.624C279.419 172.279 279.699 172 280.043 172Z" fill="#DDF1E9"/>
</g>
<path d="M240.151 192.273V201H238.83V193.594H238.778L236.69 194.957V193.696L238.868 192.273H240.151ZM242.864 201.081C242.631 201.081 242.431 200.999 242.263 200.834C242.096 200.666 242.012 200.464 242.012 200.229C242.012 199.996 242.096 199.797 242.263 199.632C242.431 199.464 242.631 199.381 242.864 199.381C243.097 199.381 243.297 199.464 243.465 199.632C243.632 199.797 243.716 199.996 243.716 200.229C243.716 200.385 243.676 200.528 243.597 200.659C243.52 200.787 243.418 200.889 243.29 200.966C243.162 201.043 243.02 201.081 242.864 201.081ZM248.128 201.145C247.455 201.142 246.879 200.964 246.402 200.612C245.925 200.26 245.56 199.747 245.307 199.074C245.054 198.401 244.928 197.589 244.928 196.641C244.928 195.695 245.054 194.886 245.307 194.216C245.563 193.545 245.929 193.034 246.406 192.682C246.886 192.33 247.46 192.153 248.128 192.153C248.795 192.153 249.368 192.331 249.845 192.686C250.322 193.038 250.688 193.55 250.94 194.22C251.196 194.888 251.324 195.695 251.324 196.641C251.324 197.592 251.197 198.405 250.945 199.078C250.692 199.749 250.327 200.261 249.849 200.616C249.372 200.969 248.798 201.145 248.128 201.145ZM248.128 200.007C248.719 200.007 249.18 199.719 249.513 199.142C249.848 198.565 250.016 197.732 250.016 196.641C250.016 195.916 249.939 195.304 249.786 194.804C249.635 194.301 249.418 193.92 249.134 193.662C248.852 193.401 248.517 193.27 248.128 193.27C247.54 193.27 247.078 193.56 246.743 194.139C246.408 194.719 246.239 195.553 246.236 196.641C246.236 197.368 246.311 197.983 246.462 198.486C246.615 198.986 246.832 199.365 247.114 199.624C247.395 199.879 247.733 200.007 248.128 200.007ZM253.376 201.081C253.143 201.081 252.942 200.999 252.775 200.834C252.607 200.666 252.523 200.464 252.523 200.229C252.523 199.996 252.607 199.797 252.775 199.632C252.942 199.464 253.143 199.381 253.376 199.381C253.609 199.381 253.809 199.464 253.977 199.632C254.144 199.797 254.228 199.996 254.228 200.229C254.228 200.385 254.188 200.528 254.109 200.659C254.032 200.787 253.93 200.889 253.802 200.966C253.674 201.043 253.532 201.081 253.376 201.081ZM258.64 201.145C257.966 201.142 257.391 200.964 256.914 200.612C256.436 200.26 256.071 199.747 255.819 199.074C255.566 198.401 255.439 197.589 255.439 196.641C255.439 195.695 255.566 194.886 255.819 194.216C256.074 193.545 256.441 193.034 256.918 192.682C257.398 192.33 257.972 192.153 258.64 192.153C259.307 192.153 259.88 192.331 260.357 192.686C260.834 193.038 261.199 193.55 261.452 194.22C261.708 194.888 261.836 195.695 261.836 196.641C261.836 197.592 261.709 198.405 261.456 199.078C261.203 199.749 260.838 200.261 260.361 200.616C259.884 200.969 259.31 201.145 258.64 201.145ZM258.64 200.007C259.23 200.007 259.692 199.719 260.025 199.142C260.36 198.565 260.527 197.732 260.527 196.641C260.527 195.916 260.451 195.304 260.297 194.804C260.147 194.301 259.929 193.92 259.645 193.662C259.364 193.401 259.029 193.27 258.64 193.27C258.051 193.27 257.59 193.56 257.255 194.139C256.919 194.719 256.75 195.553 256.748 196.641C256.748 197.368 256.823 197.983 256.973 198.486C257.127 198.986 257.344 199.365 257.625 199.624C257.907 199.879 258.245 200.007 258.64 200.007Z" fill="black"/>
<g filter="url(#filter5_di_714_7654)">
<path d="M346.043 109H279.976C279.437 109 279 109.437 279 109.976V123.639C279 124.545 279.944 125.143 280.764 124.754L282.43 123.964L282.567 123.893C284.13 123.077 285.805 122.496 287.537 122.167L288.355 122.012L288.844 121.973C291.145 121.788 293.436 122.429 295.308 123.781C296.073 124.334 296.758 125.001 297.333 125.75C298.392 127.131 299.073 128.777 299.294 130.503L299.375 131.141C299.512 132.207 299.507 133.287 299.361 134.352L299.223 135.363C299.047 136.643 298.619 137.875 297.963 138.987L297.878 139.131C296.955 140.695 295.589 141.951 293.952 142.74C292.932 143.231 291.83 143.529 290.702 143.62L289.933 143.681C288.887 143.765 287.835 143.687 286.812 143.45C285.973 143.256 285.162 142.956 284.398 142.557L282.43 141.531L280.696 140.544C279.94 140.114 279 140.66 279 141.531V157.145C279 157.617 279.383 158 279.855 158H346.043C345.699 158 345.419 157.721 345.419 157.376V141.531C345.419 140.814 346.201 140.37 346.816 140.737L349.615 142.405C349.728 142.473 349.846 142.532 349.967 142.583L350.603 142.848C352.121 143.482 353.75 143.808 355.396 143.808H356.645L358.082 143.621C360.354 143.324 362.411 142.126 363.79 140.295C364.627 139.184 365.179 137.885 365.399 136.511L365.659 134.879C365.885 133.468 365.878 132.028 365.64 130.619L365.468 129.604C365.204 128.04 364.539 126.569 363.539 125.337C362.302 123.811 360.609 122.721 358.708 122.225L358.365 122.135C357.227 121.839 356.046 121.739 354.875 121.841L354.349 121.887C353.388 121.97 352.439 122.158 351.518 122.446L350.025 122.913C349.865 122.963 349.71 123.027 349.562 123.105L346.861 124.513C346.205 124.856 345.419 124.379 345.419 123.639V109.624C345.419 109.279 345.699 109 346.043 109Z" fill="#CBCDFF"/>
</g>
<path d="M311.99 138V137.045L314.943 133.986C315.258 133.653 315.518 133.362 315.723 133.112C315.93 132.859 316.085 132.619 316.187 132.392C316.29 132.165 316.341 131.923 316.341 131.668C316.341 131.378 316.273 131.128 316.136 130.918C316 130.705 315.814 130.541 315.578 130.428C315.342 130.311 315.077 130.253 314.781 130.253C314.469 130.253 314.196 130.317 313.963 130.445C313.73 130.572 313.551 130.753 313.426 130.986C313.301 131.219 313.238 131.491 313.238 131.804H311.981C311.981 131.273 312.104 130.808 312.348 130.411C312.592 130.013 312.927 129.705 313.354 129.486C313.78 129.264 314.264 129.153 314.807 129.153C315.355 129.153 315.838 129.263 316.256 129.482C316.676 129.697 317.004 129.993 317.24 130.368C317.476 130.74 317.594 131.161 317.594 131.629C317.594 131.953 317.532 132.27 317.41 132.58C317.291 132.889 317.082 133.234 316.784 133.615C316.486 133.993 316.071 134.452 315.54 134.991L313.805 136.807V136.871H317.734V138H311.99ZM320.206 138.081C319.973 138.081 319.773 137.999 319.605 137.834C319.437 137.666 319.354 137.464 319.354 137.229C319.354 136.996 319.437 136.797 319.605 136.632C319.773 136.464 319.973 136.381 320.206 136.381C320.439 136.381 320.639 136.464 320.807 136.632C320.974 136.797 321.058 136.996 321.058 137.229C321.058 137.385 321.018 137.528 320.939 137.659C320.862 137.787 320.76 137.889 320.632 137.966C320.504 138.043 320.362 138.081 320.206 138.081ZM325.004 129.273V138H323.683V130.594H323.632L321.544 131.957V130.696L323.721 129.273H325.004ZM327.718 138.081C327.485 138.081 327.284 137.999 327.117 137.834C326.949 137.666 326.865 137.464 326.865 137.229C326.865 136.996 326.949 136.797 327.117 136.632C327.284 136.464 327.485 136.381 327.718 136.381C327.95 136.381 328.151 136.464 328.318 136.632C328.486 136.797 328.57 136.996 328.57 137.229C328.57 137.385 328.53 137.528 328.45 137.659C328.374 137.787 328.271 137.889 328.144 137.966C328.016 138.043 327.874 138.081 327.718 138.081ZM332.981 138.145C332.308 138.142 331.733 137.964 331.256 137.612C330.778 137.26 330.413 136.747 330.16 136.074C329.907 135.401 329.781 134.589 329.781 133.641C329.781 132.695 329.907 131.886 330.16 131.216C330.416 130.545 330.782 130.034 331.26 129.682C331.74 129.33 332.314 129.153 332.981 129.153C333.649 129.153 334.221 129.331 334.699 129.686C335.176 130.038 335.541 130.55 335.794 131.22C336.05 131.888 336.177 132.695 336.177 133.641C336.177 134.592 336.051 135.405 335.798 136.078C335.545 136.749 335.18 137.261 334.703 137.616C334.226 137.969 333.652 138.145 332.981 138.145ZM332.981 137.007C333.572 137.007 334.034 136.719 334.366 136.142C334.702 135.565 334.869 134.732 334.869 133.641C334.869 132.916 334.792 132.304 334.639 131.804C334.488 131.301 334.271 130.92 333.987 130.662C333.706 130.401 333.371 130.27 332.981 130.27C332.393 130.27 331.932 130.56 331.596 131.139C331.261 131.719 331.092 132.553 331.089 133.641C331.089 134.368 331.165 134.983 331.315 135.486C331.469 135.986 331.686 136.365 331.967 136.624C332.248 136.879 332.586 137.007 332.981 137.007Z" fill="black"/>
<g filter="url(#filter6_di_714_7654)">
<path d="M280.043 109H231C221.059 109 213 117.059 213 127V140C213 149.941 221.059 158 231 158H280.043C279.699 158 279.419 157.721 279.419 157.376V141.531C279.419 140.814 280.201 140.37 280.816 140.737L283.615 142.405C283.728 142.473 283.846 142.532 283.967 142.583L284.603 142.848C286.121 143.482 287.75 143.808 289.396 143.808H290.645L292.082 143.621C294.354 143.324 296.411 142.126 297.79 140.295C298.627 139.184 299.179 137.885 299.399 136.511L299.659 134.88C299.885 133.468 299.878 132.028 299.64 130.619L299.468 129.604C299.204 128.04 298.539 126.569 297.539 125.337C296.302 123.811 294.609 122.721 292.708 122.225L292.365 122.135C291.227 121.839 290.046 121.739 288.875 121.841L288.349 121.887C287.388 121.97 286.439 122.158 285.518 122.446L284.025 122.913C283.865 122.963 283.71 123.027 283.562 123.105L280.861 124.513C280.205 124.856 279.419 124.379 279.419 123.639V109.624C279.419 109.279 279.699 109 280.043 109Z" fill="#DDF1E9"/>
</g>
<path d="M236.839 138V137.045L239.793 133.986C240.108 133.653 240.368 133.362 240.572 133.112C240.78 132.859 240.935 132.619 241.037 132.392C241.139 132.165 241.19 131.923 241.19 131.668C241.19 131.378 241.122 131.128 240.986 130.918C240.849 130.705 240.663 130.541 240.428 130.428C240.192 130.311 239.926 130.253 239.631 130.253C239.318 130.253 239.045 130.317 238.812 130.445C238.58 130.572 238.401 130.753 238.276 130.986C238.151 131.219 238.088 131.491 238.088 131.804H236.831C236.831 131.273 236.953 130.808 237.197 130.411C237.442 130.013 237.777 129.705 238.203 129.486C238.629 129.264 239.114 129.153 239.656 129.153C240.205 129.153 240.688 129.263 241.105 129.482C241.526 129.697 241.854 129.993 242.089 130.368C242.325 130.74 242.443 131.161 242.443 131.629C242.443 131.953 242.382 132.27 242.26 132.58C242.141 132.889 241.932 133.234 241.634 133.615C241.335 133.993 240.92 134.452 240.389 134.991L238.655 136.807V136.871H242.584V138H236.839ZM245.055 138.081C244.822 138.081 244.622 137.999 244.455 137.834C244.287 137.666 244.203 137.464 244.203 137.229C244.203 136.996 244.287 136.797 244.455 136.632C244.622 136.464 244.822 136.381 245.055 136.381C245.288 136.381 245.489 136.464 245.656 136.632C245.824 136.797 245.908 136.996 245.908 137.229C245.908 137.385 245.868 137.528 245.788 137.659C245.712 137.787 245.609 137.889 245.482 137.966C245.354 138.043 245.212 138.081 245.055 138.081ZM250.319 138.145C249.646 138.142 249.071 137.964 248.593 137.612C248.116 137.26 247.751 136.747 247.498 136.074C247.245 135.401 247.119 134.589 247.119 133.641C247.119 132.695 247.245 131.886 247.498 131.216C247.754 130.545 248.12 130.034 248.598 129.682C249.078 129.33 249.652 129.153 250.319 129.153C250.987 129.153 251.559 129.331 252.037 129.686C252.514 130.038 252.879 130.55 253.132 131.22C253.387 131.888 253.515 132.695 253.515 133.641C253.515 134.592 253.389 135.405 253.136 136.078C252.883 136.749 252.518 137.261 252.041 137.616C251.564 137.969 250.99 138.145 250.319 138.145ZM250.319 137.007C250.91 137.007 251.372 136.719 251.704 136.142C252.039 135.565 252.207 134.732 252.207 133.641C252.207 132.916 252.13 132.304 251.977 131.804C251.826 131.301 251.609 130.92 251.325 130.662C251.044 130.401 250.708 130.27 250.319 130.27C249.731 130.27 249.27 130.56 248.934 131.139C248.599 131.719 248.43 132.553 248.427 133.641C248.427 134.368 248.502 134.983 248.653 135.486C248.806 135.986 249.024 136.365 249.305 136.624C249.586 136.879 249.924 137.007 250.319 137.007ZM255.567 138.081C255.334 138.081 255.134 137.999 254.966 137.834C254.799 137.666 254.715 137.464 254.715 137.229C254.715 136.996 254.799 136.797 254.966 136.632C255.134 136.464 255.334 136.381 255.567 136.381C255.8 136.381 256 136.464 256.168 136.632C256.336 136.797 256.419 136.996 256.419 137.229C256.419 137.385 256.38 137.528 256.3 137.659C256.223 137.787 256.121 137.889 255.993 137.966C255.865 138.043 255.723 138.081 255.567 138.081ZM260.831 138.145C260.158 138.142 259.582 137.964 259.105 137.612C258.628 137.26 258.263 136.747 258.01 136.074C257.757 135.401 257.631 134.589 257.631 133.641C257.631 132.695 257.757 131.886 258.01 131.216C258.266 130.545 258.632 130.034 259.109 129.682C259.589 129.33 260.163 129.153 260.831 129.153C261.499 129.153 262.071 129.331 262.548 129.686C263.026 130.038 263.391 130.55 263.643 131.22C263.899 131.888 264.027 132.695 264.027 133.641C264.027 134.592 263.901 135.405 263.648 136.078C263.395 136.749 263.03 137.261 262.553 137.616C262.075 137.969 261.501 138.145 260.831 138.145ZM260.831 137.007C261.422 137.007 261.884 136.719 262.216 136.142C262.551 135.565 262.719 134.732 262.719 133.641C262.719 132.916 262.642 132.304 262.489 131.804C262.338 131.301 262.121 130.92 261.837 130.662C261.555 130.401 261.22 130.27 260.831 130.27C260.243 130.27 259.781 130.56 259.446 131.139C259.111 131.719 258.942 132.553 258.939 133.641C258.939 134.368 259.014 134.983 259.165 135.486C259.318 135.986 259.536 136.365 259.817 136.624C260.098 136.879 260.436 137.007 260.831 137.007Z" fill="black"/>
<path d="M22.808 18.728V22.456H17.944V23.752C19.352 23.752 20.5093 23.7307 21.416 23.688C22.3227 23.6347 23.24 23.5333 24.168 23.384L24.328 24.696C23.3573 24.856 22.392 24.9627 21.432 25.016C20.472 25.0587 19.144 25.08 17.448 25.08H16.264V21.224H21.112V20.024H16.216V18.728H22.808ZM17.928 26.072H27.288V29.672H19.688V30.84H27.704V32.168H17.96V28.424H25.544V27.384H17.928V26.072ZM25.576 18.056H27.288V25.496H25.576V18.056ZM41.2884 18.04V32.312H39.5604V18.04H41.2884ZM30.2964 19.32H36.9524V24.632H32.0564V27.528C33.251 27.5173 34.3444 27.4747 35.3364 27.4C36.339 27.3253 37.3684 27.2027 38.4244 27.032L38.6004 28.424C37.4697 28.6267 36.3604 28.7653 35.2724 28.84C34.195 28.904 32.9524 28.936 31.5444 28.936H30.3124V23.256H35.2084V20.696H30.2964V19.32ZM56.3928 29.08V30.488H43.5128V29.08H56.3928ZM44.0728 25.48C45.0114 25.3307 45.8594 25.032 46.6168 24.584C47.3741 24.136 47.9661 23.592 48.3928 22.952C48.8301 22.312 49.0488 21.6453 49.0488 20.952V20.728H44.5848V19.336H55.3048V20.728H50.8408V20.952C50.8408 21.6453 51.0594 22.3067 51.4968 22.936C51.9341 23.5653 52.5368 24.0987 53.3048 24.536C54.0728 24.9733 54.9368 25.2667 55.8968 25.416L55.2088 26.792C54.0248 26.5787 52.9688 26.1627 52.0408 25.544C51.1128 24.9253 50.4194 24.1733 49.9608 23.288C49.5021 24.184 48.8141 24.9467 47.8968 25.576C46.9794 26.1947 45.9341 26.6213 44.7608 26.856L44.0728 25.48ZM64.5606 18.312V19.416H70.6726V18.312H72.3846V23.032H62.8646V18.312H64.5606ZM61.1846 23.992H74.0326V25.352H61.1846V23.992ZM62.6886 26.376H72.4326V29.8H64.4166V30.856H72.8486V32.168H62.7206V28.584H70.7526V27.64H62.6886V26.376ZM70.6726 21.752V20.696H64.5606V21.752H70.6726ZM80.737 25.768V24.536H76.801V20.824H84.753V19.688H76.785V18.376H86.449V22.04H78.497V23.224H86.737V24.536H82.465V25.768H88.049V27.16H75.169V25.768H80.737ZM76.593 28.072H86.529V32.2H84.817V29.448H76.593V28.072Z" fill="black"/>
<g filter="url(#filter7_di_714_7654)">
<path d="M144 10H126C119.373 10 114 15.3726 114 22V29C114 35.6274 119.373 41 126 41H144C150.627 41 156 35.6274 156 29V22C156 15.3726 150.627 10 144 10Z" fill="#DDF1E9"/>
</g>
<path d="M162.434 30.081C162.201 30.081 162.001 29.9986 161.833 29.8338C161.666 29.6662 161.582 29.4645 161.582 29.2287C161.582 28.9957 161.666 28.7969 161.833 28.6321C162.001 28.4645 162.201 28.3807 162.434 28.3807C162.667 28.3807 162.868 28.4645 163.035 28.6321C163.203 28.7969 163.287 28.9957 163.287 29.2287C163.287 29.3849 163.247 29.5284 163.167 29.6591C163.091 29.7869 162.988 29.8892 162.86 29.9659C162.733 30.0426 162.591 30.081 162.434 30.081ZM162.434 25.3168C162.201 25.3168 162.001 25.233 161.833 25.0653C161.666 24.8977 161.582 24.6974 161.582 24.4645C161.582 24.2315 161.666 24.0327 161.833 23.8679C162.001 23.7003 162.201 23.6165 162.434 23.6165C162.667 23.6165 162.868 23.7003 163.035 23.8679C163.203 24.0327 163.287 24.2315 163.287 24.4645C163.287 24.6207 163.247 24.7642 163.167 24.8949C163.091 25.0227 162.988 25.125 162.86 25.2017C162.733 25.2784 162.591 25.3168 162.434 25.3168ZM169.175 23.4545L170.619 26.0028L172.077 23.4545H173.47L171.429 26.7273L173.487 30H172.094L170.619 27.554L169.149 30H167.751L169.788 26.7273L167.777 23.4545H169.175ZM175.618 30.081C175.385 30.081 175.185 29.9986 175.017 29.8338C174.849 29.6662 174.766 29.4645 174.766 29.2287C174.766 28.9957 174.849 28.7969 175.017 28.6321C175.185 28.4645 175.385 28.3807 175.618 28.3807C175.851 28.3807 176.051 28.4645 176.219 28.6321C176.386 28.7969 176.47 28.9957 176.47 29.2287C176.47 29.3849 176.43 29.5284 176.351 29.6591C176.274 29.7869 176.172 29.8892 176.044 29.9659C175.916 30.0426 175.774 30.081 175.618 30.081ZM180.882 30.1449C180.208 30.142 179.633 29.9645 179.156 29.6122C178.679 29.2599 178.314 28.7472 178.061 28.0739C177.808 27.4006 177.681 26.5895 177.681 25.6406C177.681 24.6946 177.808 23.8864 178.061 23.2159C178.316 22.5455 178.683 22.0341 179.16 21.6818C179.64 21.3295 180.214 21.1534 180.882 21.1534C181.549 21.1534 182.122 21.331 182.599 21.6861C183.076 22.0384 183.441 22.5497 183.694 23.2202C183.95 23.8878 184.078 24.6946 184.078 25.6406C184.078 26.5923 183.951 27.4048 183.699 28.0781C183.446 28.7486 183.081 29.2614 182.603 29.6165C182.126 29.9688 181.552 30.1449 180.882 30.1449ZM180.882 29.0071C181.473 29.0071 181.934 28.7188 182.267 28.142C182.602 27.5653 182.77 26.7315 182.77 25.6406C182.77 24.9162 182.693 24.304 182.539 23.804C182.389 23.3011 182.172 22.9205 181.887 22.6619C181.606 22.4006 181.271 22.2699 180.882 22.2699C180.294 22.2699 179.832 22.5597 179.497 23.1392C179.162 23.7187 178.993 24.5526 178.99 25.6406C178.99 26.3679 179.065 26.983 179.216 27.4858C179.369 27.9858 179.586 28.3651 179.868 28.6236C180.149 28.8793 180.487 29.0071 180.882 29.0071ZM186.13 30.081C185.897 30.081 185.696 29.9986 185.529 29.8338C185.361 29.6662 185.277 29.4645 185.277 29.2287C185.277 28.9957 185.361 28.7969 185.529 28.6321C185.696 28.4645 185.897 28.3807 186.13 28.3807C186.363 28.3807 186.563 28.4645 186.73 28.6321C186.898 28.7969 186.982 28.9957 186.982 29.2287C186.982 29.3849 186.942 29.5284 186.863 29.6591C186.786 29.7869 186.684 29.8892 186.556 29.9659C186.428 30.0426 186.286 30.081 186.13 30.081ZM191.393 30.1449C190.72 30.142 190.145 29.9645 189.668 29.6122C189.19 29.2599 188.825 28.7472 188.572 28.0739C188.32 27.4006 188.193 26.5895 188.193 25.6406C188.193 24.6946 188.32 23.8864 188.572 23.2159C188.828 22.5455 189.195 22.0341 189.672 21.6818C190.152 21.3295 190.726 21.1534 191.393 21.1534C192.061 21.1534 192.634 21.331 193.111 21.6861C193.588 22.0384 193.953 22.5497 194.206 23.2202C194.462 23.8878 194.589 24.6946 194.589 25.6406C194.589 26.5923 194.463 27.4048 194.21 28.0781C193.957 28.7486 193.592 29.2614 193.115 29.6165C192.638 29.9688 192.064 30.1449 191.393 30.1449ZM191.393 29.0071C191.984 29.0071 192.446 28.7188 192.778 28.142C193.114 27.5653 193.281 26.7315 193.281 25.6406C193.281 24.9162 193.205 24.304 193.051 23.804C192.901 23.3011 192.683 22.9205 192.399 22.6619C192.118 22.4006 191.783 22.2699 191.393 22.2699C190.805 22.2699 190.344 22.5597 190.009 23.1392C189.673 23.7187 189.504 24.5526 189.501 25.6406C189.501 26.3679 189.577 26.983 189.727 27.4858C189.881 27.9858 190.098 28.3651 190.379 28.6236C190.661 28.8793 190.999 29.0071 191.393 29.0071Z" fill="black"/>
<g filter="url(#filter8_di_714_7654)">
<path d="M253 10H235C228.373 10 223 15.3726 223 22V29C223 35.6274 228.373 41 235 41H253C259.627 41 265 35.6274 265 29V22C265 15.3726 259.627 10 253 10Z" fill="#CBCDFF"/>
</g>
<path d="M271.276 28.9176C271.043 28.9176 270.843 28.8352 270.675 28.6705C270.508 28.5028 270.424 28.3011 270.424 28.0653C270.424 27.8324 270.508 27.6335 270.675 27.4688C270.843 27.3011 271.043 27.2173 271.276 27.2173C271.509 27.2173 271.709 27.3011 271.877 27.4688C272.045 27.6335 272.128 27.8324 272.128 28.0653C272.128 28.2216 272.089 28.3651 272.009 28.4957C271.932 28.6236 271.83 28.7259 271.702 28.8026C271.574 28.8793 271.432 28.9176 271.276 28.9176ZM271.276 24.5455C271.043 24.5455 270.843 24.4631 270.675 24.2983C270.508 24.1307 270.424 23.929 270.424 23.6932C270.424 23.4602 270.508 23.2614 270.675 23.0966C270.843 22.929 271.043 22.8452 271.276 22.8452C271.509 22.8452 271.709 22.929 271.877 23.0966C272.045 23.2614 272.128 23.4602 272.128 23.6932C272.128 23.8494 272.089 23.9929 272.009 24.1236C271.932 24.2514 271.83 24.3537 271.702 24.4304C271.574 24.5071 271.432 24.5455 271.276 24.5455ZM280.032 30.1449C279.359 30.142 278.784 29.9645 278.306 29.6122C277.829 29.2599 277.464 28.7472 277.211 28.0739C276.958 27.4006 276.832 26.5895 276.832 25.6406C276.832 24.6946 276.958 23.8864 277.211 23.2159C277.467 22.5455 277.833 22.0341 278.311 21.6818C278.791 21.3295 279.365 21.1534 280.032 21.1534C280.7 21.1534 281.272 21.331 281.749 21.6861C282.227 22.0384 282.592 22.5497 282.845 23.2202C283.1 23.8878 283.228 24.6946 283.228 25.6406C283.228 26.5923 283.102 27.4048 282.849 28.0781C282.596 28.7486 282.231 29.2614 281.754 29.6165C281.276 29.9688 280.703 30.1449 280.032 30.1449ZM280.032 29.0071C280.623 29.0071 281.085 28.7188 281.417 28.142C281.752 27.5653 281.92 26.7315 281.92 25.6406C281.92 24.9162 281.843 24.304 281.69 23.804C281.539 23.3011 281.322 22.9205 281.038 22.6619C280.757 22.4006 280.421 22.2699 280.032 22.2699C279.444 22.2699 278.982 22.5597 278.647 23.1392C278.312 23.7187 278.143 24.5526 278.14 25.6406C278.14 26.3679 278.215 26.983 278.366 27.4858C278.519 27.9858 278.737 28.3651 279.018 28.6236C279.299 28.8793 279.637 29.0071 280.032 29.0071ZM285.28 30.081C285.047 30.081 284.847 29.9986 284.679 29.8338C284.512 29.6662 284.428 29.4645 284.428 29.2287C284.428 28.9957 284.512 28.7969 284.679 28.6321C284.847 28.4645 285.047 28.3807 285.28 28.3807C285.513 28.3807 285.713 28.4645 285.881 28.6321C286.048 28.7969 286.132 28.9957 286.132 29.2287C286.132 29.3849 286.093 29.5284 286.013 29.6591C285.936 29.7869 285.834 29.8892 285.706 29.9659C285.578 30.0426 285.436 30.081 285.28 30.081ZM288.845 23.4545L290.289 26.0028L291.747 23.4545H293.14L291.099 26.7273L293.157 30H291.764L290.289 27.554L288.819 30H287.421L289.458 26.7273L287.447 23.4545H288.845ZM295.288 30.081C295.055 30.081 294.855 29.9986 294.687 29.8338C294.519 29.6662 294.436 29.4645 294.436 29.2287C294.436 28.9957 294.519 28.7969 294.687 28.6321C294.855 28.4645 295.055 28.3807 295.288 28.3807C295.521 28.3807 295.721 28.4645 295.889 28.6321C296.056 28.7969 296.14 28.9957 296.14 29.2287C296.14 29.3849 296.1 29.5284 296.021 29.6591C295.944 29.7869 295.842 29.8892 295.714 29.9659C295.586 30.0426 295.444 30.081 295.288 30.081ZM300.552 30.1449C299.878 30.142 299.303 29.9645 298.826 29.6122C298.349 29.2599 297.983 28.7472 297.731 28.0739C297.478 27.4006 297.351 26.5895 297.351 25.6406C297.351 24.6946 297.478 23.8864 297.731 23.2159C297.986 22.5455 298.353 22.0341 298.83 21.6818C299.31 21.3295 299.884 21.1534 300.552 21.1534C301.219 21.1534 301.792 21.331 302.269 21.6861C302.746 22.0384 303.111 22.5497 303.364 23.2202C303.62 23.8878 303.748 24.6946 303.748 25.6406C303.748 26.5923 303.621 27.4048 303.368 28.0781C303.116 28.7486 302.751 29.2614 302.273 29.6165C301.796 29.9688 301.222 30.1449 300.552 30.1449ZM300.552 29.0071C301.143 29.0071 301.604 28.7188 301.937 28.142C302.272 27.5653 302.439 26.7315 302.439 25.6406C302.439 24.9162 302.363 24.304 302.209 23.804C302.059 23.3011 301.841 22.9205 301.557 22.6619C301.276 22.4006 300.941 22.2699 300.552 22.2699C299.964 22.2699 299.502 22.5597 299.167 23.1392C298.831 23.7187 298.662 24.5526 298.66 25.6406C298.66 26.3679 298.735 26.983 298.885 27.4858C299.039 27.9858 299.256 28.3651 299.537 28.6236C299.819 28.8793 300.157 29.0071 300.552 29.0071Z" fill="black"/>
<g filter="url(#filter9_di_714_7654)">
<path d="M362 10H344C337.373 10 332 15.3726 332 22V29C332 35.6274 337.373 41 344 41H362C368.627 41 374 35.6274 374 29V22C374 15.3726 368.627 10 362 10Z" fill="#FFF4CB"/>
</g>
<path d="M380.434 28.9176C380.201 28.9176 380.001 28.8352 379.833 28.6705C379.666 28.5028 379.582 28.3011 379.582 28.0653C379.582 27.8324 379.666 27.6335 379.833 27.4688C380.001 27.3011 380.201 27.2173 380.434 27.2173C380.667 27.2173 380.868 27.3011 381.035 27.4688C381.203 27.6335 381.287 27.8324 381.287 28.0653C381.287 28.2216 381.247 28.3651 381.167 28.4957C381.091 28.6236 380.988 28.7259 380.86 28.8026C380.733 28.8793 380.591 28.9176 380.434 28.9176ZM380.434 24.5455C380.201 24.5455 380.001 24.4631 379.833 24.2983C379.666 24.1307 379.582 23.929 379.582 23.6932C379.582 23.4602 379.666 23.2614 379.833 23.0966C380.001 22.929 380.201 22.8452 380.434 22.8452C380.667 22.8452 380.868 22.929 381.035 23.0966C381.203 23.2614 381.287 23.4602 381.287 23.6932C381.287 23.8494 381.247 23.9929 381.167 24.1236C381.091 24.2514 380.988 24.3537 380.86 24.4304C380.733 24.5071 380.591 24.5455 380.434 24.5455ZM389.19 30.1449C388.517 30.142 387.942 29.9645 387.464 29.6122C386.987 29.2599 386.622 28.7472 386.369 28.0739C386.116 27.4006 385.99 26.5895 385.99 25.6406C385.99 24.6946 386.116 23.8864 386.369 23.2159C386.625 22.5455 386.991 22.0341 387.469 21.6818C387.949 21.3295 388.523 21.1534 389.19 21.1534C389.858 21.1534 390.43 21.331 390.908 21.6861C391.385 22.0384 391.75 22.5497 392.003 23.2202C392.259 23.8878 392.386 24.6946 392.386 25.6406C392.386 26.5923 392.26 27.4048 392.007 28.0781C391.754 28.7486 391.389 29.2614 390.912 29.6165C390.435 29.9688 389.861 30.1449 389.19 30.1449ZM389.19 29.0071C389.781 29.0071 390.243 28.7188 390.575 28.142C390.911 27.5653 391.078 26.7315 391.078 25.6406C391.078 24.9162 391.001 24.304 390.848 23.804C390.697 23.3011 390.48 22.9205 390.196 22.6619C389.915 22.4006 389.58 22.2699 389.19 22.2699C388.602 22.2699 388.141 22.5597 387.805 23.1392C387.47 23.7187 387.301 24.5526 387.298 25.6406C387.298 26.3679 387.374 26.983 387.524 27.4858C387.678 27.9858 387.895 28.3651 388.176 28.6236C388.457 28.8793 388.795 29.0071 389.19 29.0071ZM394.438 30.081C394.205 30.081 394.005 29.9986 393.837 29.8338C393.67 29.6662 393.586 29.4645 393.586 29.2287C393.586 28.9957 393.67 28.7969 393.837 28.6321C394.005 28.4645 394.205 28.3807 394.438 28.3807C394.671 28.3807 394.871 28.4645 395.039 28.6321C395.207 28.7969 395.29 28.9957 395.29 29.2287C395.29 29.3849 395.251 29.5284 395.171 29.6591C395.094 29.7869 394.992 29.8892 394.864 29.9659C394.737 30.0426 394.594 30.081 394.438 30.081ZM399.702 30.1449C399.029 30.142 398.453 29.9645 397.976 29.6122C397.499 29.2599 397.134 28.7472 396.881 28.0739C396.628 27.4006 396.502 26.5895 396.502 25.6406C396.502 24.6946 396.628 23.8864 396.881 23.2159C397.137 22.5455 397.503 22.0341 397.98 21.6818C398.461 21.3295 399.034 21.1534 399.702 21.1534C400.37 21.1534 400.942 21.331 401.419 21.6861C401.897 22.0384 402.262 22.5497 402.515 23.2202C402.77 23.8878 402.898 24.6946 402.898 25.6406C402.898 26.5923 402.772 27.4048 402.519 28.0781C402.266 28.7486 401.901 29.2614 401.424 29.6165C400.946 29.9688 400.373 30.1449 399.702 30.1449ZM399.702 29.0071C400.293 29.0071 400.755 28.7188 401.087 28.142C401.422 27.5653 401.59 26.7315 401.59 25.6406C401.59 24.9162 401.513 24.304 401.36 23.804C401.209 23.3011 400.992 22.9205 400.708 22.6619C400.426 22.4006 400.091 22.2699 399.702 22.2699C399.114 22.2699 398.652 22.5597 398.317 23.1392C397.982 23.7187 397.813 24.5526 397.81 25.6406C397.81 26.3679 397.885 26.983 398.036 27.4858C398.189 27.9858 398.407 28.3651 398.688 28.6236C398.969 28.8793 399.307 29.0071 399.702 29.0071ZM404.95 30.081C404.717 30.081 404.517 29.9986 404.349 29.8338C404.181 29.6662 404.098 29.4645 404.098 29.2287C404.098 28.9957 404.181 28.7969 404.349 28.6321C404.517 28.4645 404.717 28.3807 404.95 28.3807C405.183 28.3807 405.383 28.4645 405.551 28.6321C405.718 28.7969 405.802 28.9957 405.802 29.2287C405.802 29.3849 405.762 29.5284 405.683 29.6591C405.606 29.7869 405.504 29.8892 405.376 29.9659C405.248 30.0426 405.106 30.081 404.95 30.081ZM408.515 23.4545L409.959 26.0028L411.417 23.4545H412.81L410.769 26.7273L412.827 30H411.434L409.959 27.554L408.489 30H407.091L409.128 26.7273L407.117 23.4545H408.515Z" fill="black"/>
<defs>
<filter id="filter0_di_714_7654" x="342" y="172" width="74" height="57" filterUnits="userSpaceOnUse" color-interpolation-filters="sRGB">
<feFlood flood-opacity="0" result="BackgroundImageFix"/>
<feColorMatrix in="SourceAlpha" type="matrix" values="0 0 0 0 0 0 0 0 0 0 0 0 0 0 0 0 0 0 127 0" result="hardAlpha"/>
<feOffset dy="4"/>
<feGaussianBlur stdDeviation="2"/>
<feComposite in2="hardAlpha" operator="out"/>
<feColorMatrix type="matrix" values="0 0 0 0 0 0 0 0 0 0 0 0 0 0 0 0 0 0 0.25 0"/>
<feBlend mode="normal" in2="BackgroundImageFix" result="effect1_dropShadow_714_7654"/>
<feBlend mode="normal" in="SourceGraphic" in2="effect1_dropShadow_714_7654" result="shape"/>
<feColorMatrix in="SourceAlpha" type="matrix" values="0 0 0 0 0 0 0 0 0 0 0 0 0 0 0 0 0 0 127 0" result="hardAlpha"/>
<feOffset dx="4" dy="6"/>
<feGaussianBlur stdDeviation="4"/>
<feComposite in2="hardAlpha" operator="arithmetic" k2="-1" k3="1"/>
<feColorMatrix type="matrix" values="0 0 0 0 1 0 0 0 0 1 0 0 0 0 1 0 0 0 0.59 0"/>
<feBlend mode="normal" in2="shape" result="effect2_innerShadow_714_7654"/>
</filter>
<filter id="filter1_di_714_7654" x="409" y="109" width="74" height="57" filterUnits="userSpaceOnUse" color-interpolation-filters="sRGB">
<feFlood flood-opacity="0" result="BackgroundImageFix"/>
<feColorMatrix in="SourceAlpha" type="matrix" values="0 0 0 0 0 0 0 0 0 0 0 0 0 0 0 0 0 0 127 0" result="hardAlpha"/>
<feOffset dy="4"/>
<feGaussianBlur stdDeviation="2"/>
<feComposite in2="hardAlpha" operator="out"/>
<feColorMatrix type="matrix" values="0 0 0 0 0 0 0 0 0 0 0 0 0 0 0 0 0 0 0.25 0"/>
<feBlend mode="normal" in2="BackgroundImageFix" result="effect1_dropShadow_714_7654"/>
<feBlend mode="normal" in="SourceGraphic" in2="effect1_dropShadow_714_7654" result="shape"/>
<feColorMatrix in="SourceAlpha" type="matrix" values="0 0 0 0 0 0 0 0 0 0 0 0 0 0 0 0 0 0 127 0" result="hardAlpha"/>
<feOffset dx="4" dy="6"/>
<feGaussianBlur stdDeviation="4"/>
<feComposite in2="hardAlpha" operator="arithmetic" k2="-1" k3="1"/>
<feColorMatrix type="matrix" values="0 0 0 0 1 0 0 0 0 1 0 0 0 0 1 0 0 0 0.59 0"/>
<feBlend mode="normal" in2="shape" result="effect2_innerShadow_714_7654"/>
</filter>
<filter id="filter2_di_714_7654" x="275" y="172" width="94.8242" height="57" filterUnits="userSpaceOnUse" color-interpolation-filters="sRGB">
<feFlood flood-opacity="0" result="BackgroundImageFix"/>
<feColorMatrix in="SourceAlpha" type="matrix" values="0 0 0 0 0 0 0 0 0 0 0 0 0 0 0 0 0 0 127 0" result="hardAlpha"/>
<feOffset dy="4"/>
<feGaussianBlur stdDeviation="2"/>
<feComposite in2="hardAlpha" operator="out"/>
<feColorMatrix type="matrix" values="0 0 0 0 0 0 0 0 0 0 0 0 0 0 0 0 0 0 0.25 0"/>
<feBlend mode="normal" in2="BackgroundImageFix" result="effect1_dropShadow_714_7654"/>
<feBlend mode="normal" in="SourceGraphic" in2="effect1_dropShadow_714_7654" result="shape"/>
<feColorMatrix in="SourceAlpha" type="matrix" values="0 0 0 0 0 0 0 0 0 0 0 0 0 0 0 0 0 0 127 0" result="hardAlpha"/>
<feOffset dx="4" dy="6"/>
<feGaussianBlur stdDeviation="4"/>
<feComposite in2="hardAlpha" operator="arithmetic" k2="-1" k3="1"/>
<feColorMatrix type="matrix" values="0 0 0 0 1 0 0 0 0 1 0 0 0 0 1 0 0 0 0.59 0"/>
<feBlend mode="normal" in2="shape" result="effect2_innerShadow_714_7654"/>
</filter>
<filter id="filter3_di_714_7654" x="342" y="109" width="94.8242" height="57" filterUnits="userSpaceOnUse" color-interpolation-filters="sRGB">
<feFlood flood-opacity="0" result="BackgroundImageFix"/>
<feColorMatrix in="SourceAlpha" type="matrix" values="0 0 0 0 0 0 0 0 0 0 0 0 0 0 0 0 0 0 127 0" result="hardAlpha"/>
<feOffset dy="4"/>
<feGaussianBlur stdDeviation="2"/>
<feComposite in2="hardAlpha" operator="out"/>
<feColorMatrix type="matrix" values="0 0 0 0 0 0 0 0 0 0 0 0 0 0 0 0 0 0 0.25 0"/>
<feBlend mode="normal" in2="BackgroundImageFix" result="effect1_dropShadow_714_7654"/>
<feBlend mode="normal" in="SourceGraphic" in2="effect1_dropShadow_714_7654" result="shape"/>
<feColorMatrix in="SourceAlpha" type="matrix" values="0 0 0 0 0 0 0 0 0 0 0 0 0 0 0 0 0 0 127 0" result="hardAlpha"/>
<feOffset dx="4" dy="6"/>
<feGaussianBlur stdDeviation="4"/>
<feComposite in2="hardAlpha" operator="arithmetic" k2="-1" k3="1"/>
<feColorMatrix type="matrix" values="0 0 0 0 1 0 0 0 0 1 0 0 0 0 1 0 0 0 0.59 0"/>
<feBlend mode="normal" in2="shape" result="effect2_innerShadow_714_7654"/>
</filter>
<filter id="filter4_di_714_7654" x="209" y="172" width="94.8242" height="57" filterUnits="userSpaceOnUse" color-interpolation-filters="sRGB">
<feFlood flood-opacity="0" result="BackgroundImageFix"/>
<feColorMatrix in="SourceAlpha" type="matrix" values="0 0 0 0 0 0 0 0 0 0 0 0 0 0 0 0 0 0 127 0" result="hardAlpha"/>
<feOffset dy="4"/>
<feGaussianBlur stdDeviation="2"/>
<feComposite in2="hardAlpha" operator="out"/>
<feColorMatrix type="matrix" values="0 0 0 0 0 0 0 0 0 0 0 0 0 0 0 0 0 0 0.25 0"/>
<feBlend mode="normal" in2="BackgroundImageFix" result="effect1_dropShadow_714_7654"/>
<feBlend mode="normal" in="SourceGraphic" in2="effect1_dropShadow_714_7654" result="shape"/>
<feColorMatrix in="SourceAlpha" type="matrix" values="0 0 0 0 0 0 0 0 0 0 0 0 0 0 0 0 0 0 127 0" result="hardAlpha"/>
<feOffset dx="4" dy="6"/>
<feGaussianBlur stdDeviation="4"/>
<feComposite in2="hardAlpha" operator="arithmetic" k2="-1" k3="1"/>
<feColorMatrix type="matrix" values="0 0 0 0 1 0 0 0 0 1 0 0 0 0 1 0 0 0 0.5 0"/>
<feBlend mode="normal" in2="shape" result="effect2_innerShadow_714_7654"/>
</filter>
<filter id="filter5_di_714_7654" x="275" y="109" width="94.8242" height="57" filterUnits="userSpaceOnUse" color-interpolation-filters="sRGB">
<feFlood flood-opacity="0" result="BackgroundImageFix"/>
<feColorMatrix in="SourceAlpha" type="matrix" values="0 0 0 0 0 0 0 0 0 0 0 0 0 0 0 0 0 0 127 0" result="hardAlpha"/>
<feOffset dy="4"/>
<feGaussianBlur stdDeviation="2"/>
<feComposite in2="hardAlpha" operator="out"/>
<feColorMatrix type="matrix" values="0 0 0 0 0 0 0 0 0 0 0 0 0 0 0 0 0 0 0.25 0"/>
<feBlend mode="normal" in2="BackgroundImageFix" result="effect1_dropShadow_714_7654"/>
<feBlend mode="normal" in="SourceGraphic" in2="effect1_dropShadow_714_7654" result="shape"/>
<feColorMatrix in="SourceAlpha" type="matrix" values="0 0 0 0 0 0 0 0 0 0 0 0 0 0 0 0 0 0 127 0" result="hardAlpha"/>
<feOffset dx="4" dy="6"/>
<feGaussianBlur stdDeviation="4"/>
<feComposite in2="hardAlpha" operator="arithmetic" k2="-1" k3="1"/>
<feColorMatrix type="matrix" values="0 0 0 0 1 0 0 0 0 1 0 0 0 0 1 0 0 0 0.59 0"/>
<feBlend mode="normal" in2="shape" result="effect2_innerShadow_714_7654"/>
</filter>
<filter id="filter6_di_714_7654" x="209" y="109" width="94.8242" height="57" filterUnits="userSpaceOnUse" color-interpolation-filters="sRGB">
<feFlood flood-opacity="0" result="BackgroundImageFix"/>
<feColorMatrix in="SourceAlpha" type="matrix" values="0 0 0 0 0 0 0 0 0 0 0 0 0 0 0 0 0 0 127 0" result="hardAlpha"/>
<feOffset dy="4"/>
<feGaussianBlur stdDeviation="2"/>
<feComposite in2="hardAlpha" operator="out"/>
<feColorMatrix type="matrix" values="0 0 0 0 0 0 0 0 0 0 0 0 0 0 0 0 0 0 0.25 0"/>
<feBlend mode="normal" in2="BackgroundImageFix" result="effect1_dropShadow_714_7654"/>
<feBlend mode="normal" in="SourceGraphic" in2="effect1_dropShadow_714_7654" result="shape"/>
<feColorMatrix in="SourceAlpha" type="matrix" values="0 0 0 0 0 0 0 0 0 0 0 0 0 0 0 0 0 0 127 0" result="hardAlpha"/>
<feOffset dx="4" dy="6"/>
<feGaussianBlur stdDeviation="4"/>
<feComposite in2="hardAlpha" operator="arithmetic" k2="-1" k3="1"/>
<feColorMatrix type="matrix" values="0 0 0 0 1 0 0 0 0 1 0 0 0 0 1 0 0 0 0.5 0"/>
<feBlend mode="normal" in2="shape" result="effect2_innerShadow_714_7654"/>
</filter>
<filter id="filter7_di_714_7654" x="110" y="10" width="50" height="39" filterUnits="userSpaceOnUse" color-interpolation-filters="sRGB">
<feFlood flood-opacity="0" result="BackgroundImageFix"/>
<feColorMatrix in="SourceAlpha" type="matrix" values="0 0 0 0 0 0 0 0 0 0 0 0 0 0 0 0 0 0 127 0" result="hardAlpha"/>
<feOffset dy="4"/>
<feGaussianBlur stdDeviation="2"/>
<feComposite in2="hardAlpha" operator="out"/>
<feColorMatrix type="matrix" values="0 0 0 0 0 0 0 0 0 0 0 0 0 0 0 0 0 0 0.25 0"/>
<feBlend mode="normal" in2="BackgroundImageFix" result="effect1_dropShadow_714_7654"/>
<feBlend mode="normal" in="SourceGraphic" in2="effect1_dropShadow_714_7654" result="shape"/>
<feColorMatrix in="SourceAlpha" type="matrix" values="0 0 0 0 0 0 0 0 0 0 0 0 0 0 0 0 0 0 127 0" result="hardAlpha"/>
<feOffset dx="4" dy="6"/>
<feGaussianBlur stdDeviation="4"/>
<feComposite in2="hardAlpha" operator="arithmetic" k2="-1" k3="1"/>
<feColorMatrix type="matrix" values="0 0 0 0 1 0 0 0 0 1 0 0 0 0 1 0 0 0 0.59 0"/>
<feBlend mode="normal" in2="shape" result="effect2_innerShadow_714_7654"/>
</filter>
<filter id="filter8_di_714_7654" x="219" y="10" width="50" height="39" filterUnits="userSpaceOnUse" color-interpolation-filters="sRGB">
<feFlood flood-opacity="0" result="BackgroundImageFix"/>
<feColorMatrix in="SourceAlpha" type="matrix" values="0 0 0 0 0 0 0 0 0 0 0 0 0 0 0 0 0 0 127 0" result="hardAlpha"/>
<feOffset dy="4"/>
<feGaussianBlur stdDeviation="2"/>
<feComposite in2="hardAlpha" operator="out"/>
<feColorMatrix type="matrix" values="0 0 0 0 0 0 0 0 0 0 0 0 0 0 0 0 0 0 0.25 0"/>
<feBlend mode="normal" in2="BackgroundImageFix" result="effect1_dropShadow_714_7654"/>
<feBlend mode="normal" in="SourceGraphic" in2="effect1_dropShadow_714_7654" result="shape"/>
<feColorMatrix in="SourceAlpha" type="matrix" values="0 0 0 0 0 0 0 0 0 0 0 0 0 0 0 0 0 0 127 0" result="hardAlpha"/>
<feOffset dx="4" dy="6"/>
<feGaussianBlur stdDeviation="4"/>
<feComposite in2="hardAlpha" operator="arithmetic" k2="-1" k3="1"/>
<feColorMatrix type="matrix" values="0 0 0 0 1 0 0 0 0 1 0 0 0 0 1 0 0 0 0.59 0"/>
<feBlend mode="normal" in2="shape" result="effect2_innerShadow_714_7654"/>
</filter>
<filter id="filter9_di_714_7654" x="328" y="10" width="50" height="39" filterUnits="userSpaceOnUse" color-interpolation-filters="sRGB">
<feFlood flood-opacity="0" result="BackgroundImageFix"/>
<feColorMatrix in="SourceAlpha" type="matrix" values="0 0 0 0 0 0 0 0 0 0 0 0 0 0 0 0 0 0 127 0" result="hardAlpha"/>
<feOffset dy="4"/>
<feGaussianBlur stdDeviation="2"/>
<feComposite in2="hardAlpha" operator="out"/>
<feColorMatrix type="matrix" values="0 0 0 0 0 0 0 0 0 0 0 0 0 0 0 0 0 0 0.25 0"/>
<feBlend mode="normal" in2="BackgroundImageFix" result="effect1_dropShadow_714_7654"/>
<feBlend mode="normal" in="SourceGraphic" in2="effect1_dropShadow_714_7654" result="shape"/>
<feColorMatrix in="SourceAlpha" type="matrix" values="0 0 0 0 0 0 0 0 0 0 0 0 0 0 0 0 0 0 127 0" result="hardAlpha"/>
<feOffset dx="4" dy="6"/>
<feGaussianBlur stdDeviation="4"/>
<feComposite in2="hardAlpha" operator="arithmetic" k2="-1" k3="1"/>
<feColorMatrix type="matrix" values="0 0 0 0 1 0 0 0 0 1 0 0 0 0 1 0 0 0 0.59 0"/>
<feBlend mode="normal" in2="shape" result="effect2_innerShadow_714_7654"/>
</filter>
</defs>
</svg>
